<svg width="25" height="26" viewBox="0 0 25 26" fill="none" xmlns="http://www.w3.org/2000/svg">
<g clip-path="url(#clip0_350_225)">
<path fill-rule="evenodd" clip-rule="evenodd" d="M12 3.5C7.02944 3.5 3 7.52944 3 12.5C3 17.4706 7.02944 21.5 12 21.5C16.9706 21.5 21 17.4706 21 12.5C21 7.52944 16.9706 3.5 12 3.5ZM12 14.4688C12.4349 14.4688 12.7875 14.8213 12.7875 15.2562C12.7875 15.6912 12.4349 16.0437 12 16.0437C11.5651 16.0437 11.2125 15.6912 11.2125 15.2562C11.2125 14.8213 11.5651 14.4688 12 14.4688ZM12 8.5625C12.3107 8.5625 12.5625 8.81434 12.5625 9.125V13.0625C12.5625 13.3732 12.3107 13.625 12 13.625C11.6893 13.625 11.4375 13.3732 11.4375 13.0625V9.125C11.4375 8.81434 11.6893 8.5625 12 8.5625Z" fill="#00E39C"/>
</g>
<defs>
<clipPath id="clip0_350_225">
<rect width="18" height="18" fill="white" transform="matrix(-1 0 0 1 21 3.5)"/>
</clipPath>
</defs>
</svg>
