<svg width="30" height="30" viewBox="0 0 30 30" fill="none" xmlns="http://www.w3.org/2000/svg">
<path fill-rule="evenodd" clip-rule="evenodd" d="M28.7964 12.6587V27.605H25.3027V25.2954H4.69726V27.605H1.20361V12.6587H0V10.3613H2.93945L4.57763 5.26367C5.06103 3.75977 5.86669 2.39502 7.44384 2.39502H23.164C24.7412 2.39502 25.6494 3.73291 26.0302 5.26123L27.2973 10.3589H29.9975V12.6562H28.7964V12.6587ZM9.76806 20.6836H20.0879V23.1177H9.76806V20.6836ZM2.37304 15.0146C5.00244 15.0977 6.61132 16.1987 7.02392 18.4961H2.37304V15.0146ZM27.2949 15.0146C24.6655 15.0977 23.0566 16.1987 22.644 18.4961H27.2949V15.0146ZM4.19433 10.3589H25.8056L24.8803 6.08398C24.6264 4.91211 23.8965 3.89893 22.6953 3.89893H7.74902C6.54784 3.89893 5.93261 4.93896 5.56396 6.08398L4.19433 10.3589Z" fill="#10192A"/>
</svg>
