<svg xmlns="http://www.w3.org/2000/svg" viewBox="0 0 256 256" id="Alert">
  <path fill="#fff3e2" d="M119.339 30.311 12.298 215.712c-3.849 6.667.962 15 8.66 15h214.083c7.698 0 12.509-8.333 8.66-15L136.66 30.311c-3.849-6.667-13.472-6.667-17.321 0z" class="colorffe2e2 svgShape"></path>
  <path fill="#ea9a2a" d="M131.477 178.02h-6.629a10 10 0 0 1-9.969-9.212l-6.999-88.5c-.46-5.815 4.135-10.788 9.969-10.788h20.302c5.819 0 10.409 4.949 9.972 10.752l-6.673 88.5a10.001 10.001 0 0 1-9.973 9.248z" class="colorea2a6a svgShape"></path>
  <circle cx="128" cy="204.654" r="12.634" fill="#ea9a2a" class="colorea2a6a svgShape"></circle>
  <path fill="#ffbf66" d="M235.04 230.711h-15c7.7 0 12.51-8.33 8.66-15l-107.04-185.4c-.34-.6-.73-1.14-1.16-1.63 4.37-4.99 12.66-4.44 16.16 1.63l107.04 185.4c3.85 6.671-.96 15-8.66 15z" class="colorffcfcf svgShape"></path>
  <path fill="#fff8ee" d="M27.3 215.711c-3.85 6.67.96 15 8.66 15h-15c-7.7 0-12.51-8.33-8.66-15l107.04-185.4c3.5-6.07 11.79-6.62 16.16-1.63-.43.49-.82 1.03-1.16 1.63L27.3 215.711z" class="colorffefee svgShape"></path>
  <path fill="#6d4f26" d="M247.166 213.712 140.124 28.311c-2.53-4.383-7.063-7-12.124-7 1 0-7.623-.798-12.125 7L8.834 213.712c-5.389 9.333 1.338 21 12.124 21h214.083c10.776 0 17.517-11.658 12.125-21zm-12.125 13H20.958c-4.618 0-7.508-4.997-5.196-9L122.804 32.311c2.31-4 8.08-4.003 10.393 0l107.042 185.401c2.308 4.001-.576 9-5.198 9z" class="color5f266d svgShape"></path>
  <path fill="#6d4f26" d="M138.151 65.52h-20.302c-8.159 0-14.6 6.97-13.956 15.104l6.999 88.5c.572 7.231 6.702 12.896 13.957 12.896h6.629c7.28 0 13.413-5.687 13.96-12.947l6.674-88.5c.611-8.116-5.823-15.053-13.961-15.053zm5.983 14.451-6.674 88.5c-.235 3.111-2.863 5.549-5.983 5.549h-6.629c-3.109 0-5.736-2.428-5.981-5.527l-6.999-88.5a5.993 5.993 0 0 1 5.981-6.473h20.302a5.994 5.994 0 0 1 5.983 6.451zM128 188.02c-9.172 0-16.634 7.462-16.634 16.634s7.462 16.634 16.634 16.634c9.173 0 16.635-7.462 16.635-16.634S137.173 188.02 128 188.02zm0 25.268c-4.761 0-8.634-3.874-8.634-8.634s3.874-8.634 8.634-8.634c4.761 0 8.635 3.874 8.635 8.634s-3.875 8.634-8.635 8.634z" class="color5f266d svgShape"></path>
</svg>
