<svg xmlns="http://www.w3.org/2000/svg" enable-background="new 0 0 400 400" version="1" viewBox="0 0 400 400" id="Car">
  <path fill="#449875" d="M200,71.984c36.966,0,54.026,28.664,54.026,54.081c0,0-8.97,122.219-4.859,135.818
			c0.778,2.576,1.316,5.393,1.316,8.261v27.42c0,14.849-10.452,26.887-23.346,26.887H200h-27.138
			c-12.893,0-23.346-12.038-23.346-26.887v-27.42c0-2.868,0.538-5.686,1.316-8.261c4.111-13.598-4.859-135.818-4.859-135.818
			C145.974,100.648,162.999,71.984,200,71.984z" class="color448c98 svgShape"></path>
  <polygon fill="#ffffff" points="235.126 280.707 215.962 324.452 200 324.452 184.038 324.452 164.874 280.707" class="colorffe6c4 svgShape"></polygon>
  <path fill="#373d3a" d="M156.542 152.182c0 0 12.915 34.995 12.915 64.158 0 47.494-12.915 45.15-12.915 45.15V152.182zM243.424 152.182c0 0-12.915 34.995-12.915 64.158 0 47.494 12.915 45.15 12.915 45.15V152.182z" class="color373c3d svgShape"></path>
  <path fill="#52cc99" d="M200,300.705c14.034,0,29.814-10.311,35.126-19.997c-2.5-10.624-2.5-10.624-6.817-28.072
			c-2.297-9.283-2.052-20.172-2.052-30.67c0-19.045,1.787-37.027,6.369-52.025c-5.833-8.332-16.665-9.842-32.626-9.842
			c-15.962,0-26.794,1.51-32.626,9.842c4.583,14.998,6.369,32.98,6.369,52.025c0,10.497,0.245,21.387-2.052,30.67
			c-4.317,17.448-4.317,17.448-6.817,28.072C170.186,290.394,185.966,300.705,200,300.705z" class="color4e9ea7 svgShape"></path>
  <path fill="#3c8768" d="M159.992 138.616c0 0 5.504-33.23 9.551-58.236-5.337 3.462-9.737 7.809-13.229 12.702-.346.496-.695.993-1.017 1.487-.077.117-.156.233-.232.351-1.98 3.096-3.47 6.098-4.59 8.703-1.112 2.662-2.024 5.392-2.72 8.157L159.992 138.616zM240.032 138.616c0 0-5.504-33.23-9.551-58.236 5.336 3.462 9.737 7.809 13.229 12.702.346.496.695.993 1.017 1.487.077.117.156.233.232.351 1.98 3.096 3.47 6.098 4.589 8.703 1.112 2.662 2.024 5.392 2.72 8.157L240.032 138.616z" class="color3c7c87 svgShape"></path>
  <polygon fill="#2c634c" points="156.684 131.361 169.457 79.878 161.688 142.241" class="color2c5b63 svgShape"></polygon>
  <polygon fill="#2c634c" points="243.24 131.361 230.467 79.878 238.236 142.241" class="color2c5b63 svgShape"></polygon>
  <path fill="#57615d" d="M236.966 269.146c0 0-.121 17.498 3.576 17.498 3.697 0 4.322-17.498 4.322-17.498H236.966zM153.128 269.146c0 0-.121 17.498 3.576 17.498 3.697 0 4.322-17.498 4.322-17.498H153.128z" class="color575f61 svgShape"></path>
  <polygon fill="#2c634c" points="153.128 300.705 172.862 324.452 179.312 324.452" class="color2c5b63 svgShape"></polygon>
  <polygon fill="#2c634c" points="246.551 300.705 226.817 324.452 220.367 324.452" class="color2c5b63 svgShape"></polygon>
  <path fill="#aae3cb" d="M153.235 106.303c-1.191 4.372 4.403 9.355 5.326 7.168.923-2.187 5.922-20.935 7.797-27.496C160.838 87.849 155.118 99.389 153.235 106.303zM247.093 106.303c1.191 4.372-4.403 9.355-5.326 7.168-.923-2.187-5.922-20.935-7.797-27.496C239.49 87.849 245.21 99.389 247.093 106.303z" class="coloraacae3 svgShape"></path>
  <path fill="#61f6b8" d="M184.649,315.462h30.712V74.718c-0.239-0.371-0.486-0.698-0.729-1.051
				c-4.48-1.079-9.346-1.683-14.633-1.683c-5.286,0-10.151,0.603-14.63,1.679c-0.24,0.35-0.484,0.673-0.721,1.04V315.462z" class="colorf6bc61 svgShape"></path>
  <path fill="#ffffff" d="M180.305 267.308V75.142c-1.774.616-3.477 1.312-5.108 2.085v190.081H180.305zM224.864 267.308V77.264c-1.631-.777-3.334-1.477-5.108-2.096v192.14H224.864z" class="colorffe6c4 svgShape"></path>
  <polygon fill="#cfcfcf" points="167.009 321.301 175.172 304.214 181.399 318.428" class="colorcfcfcf svgShape"></polygon>
  <polygon fill="#cfcfcf" points="233.007 321.301 224.844 304.214 218.617 318.428" class="colorcfcfcf svgShape"></polygon>
  <rect width="103.353" height="11.677" x="148.323" y="315.462" fill="#8f8f8f" class="color8f8f8f svgShape"></rect>
  <rect width="103.353" height="3.747" x="148.323" y="324.269" fill="#cfcfcf" class="colorcfcfcf svgShape"></rect>
  <g fill="#000000" class="color000000 svgShape">
    <path fill="#57615d" d="M158.625,136.407l8.749,33.533H200v-46.088C172.009,123.853,158.625,136.407,158.625,136.407z" class="color575f61 svgShape"></path>
    <path fill="#373d3a" d="M241.375,136.407c0,0-13.384-12.554-41.375-12.554v46.088h32.626L241.375,136.407z" class="color373c3d svgShape"></path>
  </g>
  <path fill="#373d3a" d="M200,294.456c17.573,0,30.543-13.748,30.543-13.748s-1.354-5.78-5.729-24.059
			c-7.448,0-40.568,0-49.63,0c-4.375,18.279-5.728,24.059-5.728,24.059S182.427,294.456,200,294.456z" class="color373c3d svgShape"></path>
  <g fill="#000000" class="color000000 svgShape">
    <polygon fill="#57615d" points="197.401 89.823 184.7 92.541 184.7 89.823 197.401 87.106" class="color575f61 svgShape"></polygon>
    <polygon fill="#57615d" points="197.401 93.544 184.7 96.262 184.7 93.544 197.401 90.826" class="color575f61 svgShape"></polygon>
    <polygon fill="#57615d" points="197.401 97.265 184.7 99.982 184.7 97.265 197.401 94.547" class="color575f61 svgShape"></polygon>
    <g fill="#000000" class="color000000 svgShape">
      <polygon fill="#57615d" points="202.66 89.823 215.361 92.541 215.361 89.823 202.66 87.106" class="color575f61 svgShape"></polygon>
      <polygon fill="#57615d" points="202.66 93.544 215.361 96.262 215.361 93.544 202.66 90.826" class="color575f61 svgShape"></polygon>
      <polygon fill="#57615d" points="202.66 97.265 215.361 99.982 215.361 97.265 202.66 94.547" class="color575f61 svgShape"></polygon>
    </g>
  </g>
</svg>
