<svg xmlns="http://www.w3.org/2000/svg" id="History" enable-background="new 0 0 64 64" viewBox="0 0 64 64">
  <path fill="#ffffff" d="M50.67,25.73c-1.96-0.62-4.28-0.13-6.58,1.18c-3.17,1.81-6.29,5.18-8.38,9.4l4.02,1.26l-5.92,4.2
		c-0.22,1.11-0.34,2.21-0.34,3.27c0.01,3.88,1.63,6.42,4.14,7.2c1.96,0.61,4.28,0.13,6.58-1.19c3.17-1.81,6.31-5.19,8.4-9.43
		C56.2,34.31,55.34,27.18,50.67,25.73z" class="colorddd9d7 svgShape"></path>
  <polygon fill="#00e585" points="32.3 63.02 7.95 49.05 13.26 38.28 37.61 52.25" class="colore50042 svgShape"></polygon>
  <path fill="#737474" d="M46.23,36.33l4.58-2.61l0.01,2.92l-4.61,2.63c0.24-0.57,0.37-1.16,0.37-1.7
		C46.58,37.04,46.45,36.62,46.23,36.33z" class="color737474 svgShape"></path>
  <path fill="#34a274" d="M44.1,36.17c0.56-0.32,1.08-0.4,1.5-0.28c0.25,0.07,0.47,0.22,0.63,0.44c0.22,0.29,0.35,0.71,0.35,1.24
		c0,0.55-0.13,1.14-0.37,1.7c-0.44,1.04-1.21,2.01-2.1,2.52c-1.36,0.78-2.47,0.15-2.48-1.4c0-1.11,0.56-2.4,1.39-3.33
		C43.35,36.69,43.71,36.39,44.1,36.17z" class="color346ba2 svgShape"></path>
  <path fill="#737474" d="M43.02,37.06L43,29.04l2.58-1.47l0.02,8.31c-0.42-0.12-0.94-0.04-1.5,0.28
		C43.71,36.39,43.35,36.69,43.02,37.06z" class="color737474 svgShape"></path>
  <linearGradient id="SVGID_1_" x1="24.535" x2="21.197" y1="36.706" y2="43.49" gradientUnits="userSpaceOnUse">
    <stop offset=".028" stop-color="#c4c4c4" class="stopColorc4c4c4 svgShape"></stop>
    <stop offset=".254" stop-color="#b2b2b2" class="stopColorb2b2b2 svgShape"></stop>
    <stop offset=".533" stop-color="#b2b2b2" class="stopColorb2b2b2 svgShape"></stop>
    <stop offset="1" stop-color="#4f5050" class="stopColor4f5050 svgShape"></stop>
  </linearGradient>
  <path fill="url(#SVGID_1_)" d="M33.47,45.04c0-0.47,0.03-0.96,0.08-1.44c0.01-0.11,0.02-0.22,0.03-0.33c0.06-0.5,0.13-1,0.23-1.5c0,0,0,0,0,0
		L9.46,27.79c-0.08,0.4-0.15,0.81-0.2,1.21c-0.01,0.1-0.02,0.2-0.03,0.3c-0.01,0.11-0.02,0.22-0.03,0.32
		c-0.05,0.49-0.08,0.97-0.08,1.45c0.01,3.31,1.19,5.65,3.1,6.75l24.35,13.98C34.66,50.69,33.48,48.35,33.47,45.04z"></path>
  <path fill="#1cf79b" d="M44.05,17.09c4.17-2.38,8.38-3.26,11.93-2.15c8.45,2.64,10.01,15.58,3.48,28.83
		c-3.79,7.69-9.47,13.82-15.23,17.1c-4.17,2.38-8.39,3.26-11.94,2.15l5.31-10.77c1.96,0.6,4.29,0.11,6.59-1.2
		c3.17-1.81,6.31-5.19,8.4-9.43c3.6-7.31,2.74-14.44-1.92-15.9c-1.96-0.62-4.28-0.13-6.58,1.18c-3.17,1.81-6.29,5.18-8.38,9.4
		l4.02,1.26l-5.92,4.2l-7.27,5.15l-1.69-14.01l3.99,1.25C32.62,26.49,38.3,20.37,44.05,17.09z" class="colorf71c55 svgShape"></path>
  <linearGradient id="SVGID_3_" x1="38.517" x2="24.452" y1="5.112" y2="29.596" gradientUnits="userSpaceOnUse">
    <stop offset="0" stop-color="#5ff2b5" class="stopColorf25f8c svgShape"></stop>
    <stop offset=".17" stop-color="#1cf79b" class="stopColorf71c55 svgShape"></stop>
    <stop offset="1" stop-color="#00b76a" class="stopColorb70034 svgShape"></stop>
  </linearGradient>
  <path fill="url(#SVGID_3_)" d="M47.03,15.66c0.13-0.05,0.26-0.1,0.39-0.15c0.35-0.13,0.7-0.25,1.06-0.36
		c0.13-0.04,0.26-0.08,0.38-0.12c0.43-0.12,0.86-0.23,1.29-0.31c0.08-0.01,0.15-0.03,0.23-0.04c0.3-0.05,0.6-0.09,0.9-0.12
		c0.23-0.03,0.46-0.05,0.69-0.07c0.29-0.02,0.57-0.02,0.85-0.02c0.17,0,0.34,0,0.51,0c0.39,0.02,0.77,0.06,1.15,0.12
		c0.05,0.01,0.1,0.01,0.15,0.02c0.46,0.08,0.91,0.18,1.34,0.32c0.31,0.1,0.6,0.21,0.89,0.33c0.2,0.08,0.39,0.18,0.58,0.28
		c0.14,0.07,0.28,0.13,0.42,0.21L33.52,1.79c-0.03-0.02-0.07-0.04-0.1-0.06c-0.1-0.06-0.21-0.1-0.32-0.15
		c-0.19-0.1-0.38-0.19-0.58-0.28c-0.03-0.01-0.05-0.03-0.08-0.04c-0.26-0.11-0.53-0.21-0.81-0.29c-0.08-0.02-0.15-0.05-0.23-0.07
		c-0.36-0.1-0.72-0.19-1.09-0.25c-0.01,0-0.01,0-0.02,0c-0.05-0.01-0.1-0.01-0.15-0.02c-0.33-0.05-0.66-0.09-1-0.12
		c-0.05,0-0.1,0-0.16,0c-0.17-0.01-0.34,0-0.51,0c-0.2,0-0.4-0.01-0.61-0.01c-0.08,0-0.16,0.02-0.24,0.02
		c-0.23,0.01-0.46,0.04-0.69,0.07c-0.17,0.02-0.33,0.02-0.5,0.05c-0.13,0.02-0.27,0.05-0.4,0.07c-0.08,0.01-0.15,0.03-0.23,0.04
		C25.44,0.83,25.08,0.91,24.72,1c-0.07,0.02-0.14,0.04-0.21,0.06c-0.13,0.04-0.26,0.08-0.38,0.12c-0.35,0.11-0.7,0.23-1.05,0.36
		c-0.13,0.05-0.26,0.1-0.4,0.15c-0.08,0.03-0.15,0.05-0.23,0.09c-0.26,0.11-0.52,0.23-0.79,0.35c-0.16,0.07-0.32,0.14-0.48,0.22
		c-0.49,0.24-0.98,0.49-1.48,0.77c-0.5,0.28-0.99,0.59-1.48,0.92c-0.11,0.08-0.23,0.15-0.34,0.23c-0.49,0.33-0.97,0.67-1.45,1.04
		c-0.06,0.04-0.11,0.09-0.17,0.13c-0.44,0.34-0.88,0.7-1.31,1.07c-0.11,0.09-0.21,0.18-0.32,0.27c-0.47,0.41-0.93,0.84-1.39,1.28
		c-0.03,0.03-0.05,0.05-0.08,0.07c-0.12,0.11-0.23,0.23-0.35,0.35c-0.2,0.2-0.4,0.4-0.59,0.6c-0.15,0.16-0.3,0.32-0.45,0.48
		c-0.19,0.2-0.38,0.41-0.57,0.62c-0.05,0.06-0.1,0.11-0.15,0.17c-0.06,0.06-0.11,0.13-0.16,0.19c-0.45,0.52-0.89,1.04-1.32,1.59
		c-0.02,0.03-0.04,0.05-0.06,0.07c-0.01,0.01-0.01,0.02-0.02,0.02c-0.39,0.49-0.76,1-1.13,1.52c-0.04,0.06-0.08,0.11-0.12,0.16
		c-0.07,0.1-0.13,0.2-0.2,0.3c-0.24,0.34-0.47,0.68-0.7,1.03c-0.07,0.1-0.13,0.19-0.2,0.29c-0.05,0.07-0.09,0.14-0.13,0.21
		c-0.22,0.34-0.43,0.68-0.63,1.02c-0.07,0.12-0.15,0.23-0.22,0.35c-0.02,0.04-0.04,0.07-0.06,0.11c-0.26,0.44-0.51,0.88-0.75,1.33
		c-0.03,0.05-0.06,0.1-0.08,0.15c0,0.01-0.01,0.01-0.01,0.02c-0.25,0.47-0.5,0.95-0.74,1.44l24.35,13.98
		c0.24-0.48,0.49-0.96,0.74-1.44c0.03-0.06,0.06-0.11,0.09-0.17c0.24-0.45,0.49-0.89,0.75-1.33c0.09-0.16,0.19-0.31,0.28-0.47
		c0.21-0.35,0.42-0.69,0.63-1.02c0.11-0.17,0.22-0.34,0.33-0.51c0.23-0.35,0.46-0.69,0.7-1.03c0.11-0.15,0.21-0.31,0.32-0.46
		c0.37-0.52,0.75-1.02,1.13-1.52c0.03-0.03,0.05-0.07,0.08-0.1c0.43-0.55,0.87-1.07,1.32-1.59c0.11-0.12,0.21-0.24,0.32-0.36
		c0.19-0.21,0.38-0.42,0.57-0.62c0.15-0.16,0.3-0.32,0.45-0.48c0.2-0.2,0.39-0.4,0.59-0.6c0.14-0.14,0.28-0.28,0.42-0.42
		c0.46-0.45,0.92-0.87,1.39-1.28c0.11-0.09,0.21-0.18,0.32-0.27c0.43-0.37,0.87-0.73,1.31-1.07c0.06-0.04,0.11-0.09,0.17-0.13
		c0.48-0.37,0.97-0.71,1.45-1.04c0.11-0.08,0.23-0.15,0.34-0.23c0.49-0.32,0.99-0.64,1.48-0.92c0.49-0.28,0.98-0.54,1.48-0.77
		c0.16-0.08,0.32-0.14,0.48-0.22C46.35,15.95,46.69,15.8,47.03,15.66z"></path>
  <polygon fill="#00b76a" points="26.54 46.92 2.19 32.94 .5 18.94 24.85 32.91" class="colorb70034 svgShape"></polygon>
  <polygon fill="#00e585" points="24.85 32.91 .5 18.94 4.49 20.18 28.84 34.16" class="colore50042 svgShape"></polygon>
  <path fill="#b2b2b2" d="M44.2,51.05c2.16-1.41,3.99-3.24,5.51-5.27c1.52-2.04,2.74-4.28,3.6-6.66c0.88-2.36,1.38-4.88,1.2-7.38
		c-0.1-1.24-0.4-2.49-1.02-3.57c-0.6-1.1-1.59-1.99-2.81-2.44c1.27,0.31,2.36,1.18,3.08,2.28c0.71,1.11,1.08,2.4,1.24,3.69
		c0.18,1.3,0.07,2.61-0.12,3.89c-0.19,1.29-0.54,2.54-0.97,3.76c-0.93,2.42-2.18,4.72-3.81,6.74C48.47,48.09,46.51,49.87,44.2,51.05
		z" class="colorb2b2b2 svgShape"></path>
  <path fill="#7dffc9" d="M28.84 34.16c1.2-2.7 2.7-5.28 4.48-7.68 1.77-2.4 3.83-4.59 6.1-6.53 2.32-1.89 4.87-3.56 7.71-4.6 1.42-.5 2.9-.87 4.41-.98 1.51-.09 3.04.06 4.44.57-2.91-.76-5.96-.23-8.67.87-2.73 1.11-5.23 2.73-7.47 4.63-2.27 1.87-4.3 4.03-6.13 6.34C31.88 29.08 30.28 31.57 28.84 34.16zM37.61 52.25c-.66 1.91-1.49 3.73-2.36 5.53-.89 1.79-1.83 3.56-2.95 5.25.65-1.91 1.49-3.73 2.36-5.53C35.56 55.71 36.49 53.94 37.61 52.25z" class="colorff7dac svgShape"></path>
  <path fill="#52cc99" d="M42.11,41.77c-0.56-0.45-0.67-1.25-0.6-1.93c0.06-0.7,0.32-1.37,0.67-1.98c0.36-0.6,0.82-1.15,1.41-1.55
		c0.57-0.39,1.33-0.69,2-0.42c-0.69-0.09-1.3,0.27-1.8,0.68c-0.5,0.43-0.91,0.94-1.24,1.51c-0.34,0.56-0.58,1.17-0.72,1.81
		C41.72,40.51,41.7,41.21,42.11,41.77z" class="color5089c3 svgShape"></path>
</svg>
