<svg width="61" height="60" viewBox="0 0 61 60" fill="none" xmlns="http://www.w3.org/2000/svg">
<g clip-path="url(#clip0_1015_9332)">
<path d="M30.5 57.6562C15.2259 57.6562 2.84375 45.2741 2.84375 30C2.84375 14.7259 15.2259 2.34375 30.5 2.34375C45.7741 2.34375 58.1562 14.7259 58.1562 30C58.1393 45.2671 45.7671 57.6393 30.5 57.6562Z" fill="white"/>
<path d="M30.5 4.6875C44.4798 4.6875 55.8125 16.0202 55.8125 30C55.8125 43.9798 44.4798 55.3125 30.5 55.3125C16.5202 55.3125 5.1875 43.9798 5.1875 30C5.20355 16.0269 16.5269 4.70355 30.5 4.6875ZM30.5 0C13.9314 0 0.5 13.4314 0.5 30C0.5 46.5686 13.9314 60 30.5 60C47.0686 60 60.5 46.5686 60.5 30C60.5 13.4314 47.0686 0 30.5 0Z" fill="#CCCCCC"/>
<path d="M30.5001 4.61902C44.5176 4.61902 55.881 15.9825 55.881 30C55.881 44.0175 44.5176 55.3809 30.5001 55.3809C16.4826 55.3809 5.11914 44.0175 5.11914 30C5.13309 15.9882 16.4883 4.63296 30.5001 4.61902ZM30.5001 3.21277C15.706 3.21277 3.71289 15.2059 3.71289 30C3.71289 44.7941 15.706 56.7871 30.5001 56.7871C45.2942 56.7871 57.2873 44.7941 57.2873 30C57.2873 15.2059 45.2942 3.21277 30.5001 3.21277Z" fill="#999999"/>
<path d="M31.2029 6.88782H29.7966V11.2125H31.2029V6.88782Z" fill="black"/>
<path d="M31.2029 48.7878H29.7966V53.1125H31.2029V48.7878Z" fill="black"/>
<path d="M31.2029 6.88782H29.7966V11.2125H31.2029V6.88782Z" fill="black"/>
<path d="M31.2029 48.7878H29.7966V53.1125H31.2029V48.7878Z" fill="black"/>
<path d="M11.7124 29.2965H7.3877V30.7028H11.7124V29.2965Z" fill="black"/>
<path d="M53.6125 29.2965H49.2878V30.7028H53.6125V29.2965Z" fill="black"/>
<path d="M31.2029 16.0928H29.7966V27.5073H31.2029V16.0928Z" fill="black"/>
<path d="M50.222 19.6375L29.6958 29.6642L30.3131 30.9278L50.8393 20.9011L50.222 19.6375Z" fill="black"/>
<path d="M33.6563 23.9976L19.1455 45.4094L20.3104 46.1989L34.8212 24.787L33.6563 23.9976Z" fill="#CCCCCC"/>
<path d="M30.4997 33.1915C32.2625 33.1915 33.6915 31.7625 33.6915 29.9997C33.6915 28.2369 32.2625 26.8079 30.4997 26.8079C28.7369 26.8079 27.3079 28.2369 27.3079 29.9997C27.3079 31.7625 28.7369 33.1915 30.4997 33.1915Z" fill="#E21B1B"/>
</g>
<defs>
<clipPath id="clip0_1015_9332">
<rect width="60" height="60" fill="white" transform="translate(0.5)"/>
</clipPath>
</defs>
</svg>
