<svg width="40" height="40" viewBox="0 0 40 40" fill="none" xmlns="http://www.w3.org/2000/svg">
<rect width="40" height="40" rx="20" fill="#1B3044"/>
<path d="M14.2383 24.8454C13.9252 25.1585 13.916 25.6925 14.2383 26.0148C14.5513 26.337 15.0854 26.3278 15.4076 26.0148L20.1219 21.2913L24.8454 26.0148C25.1585 26.3278 25.6925 26.337 26.0056 26.0148C26.337 25.6925 26.3278 25.1585 26.0056 24.8454L21.2913 20.1219L26.0056 15.4076C26.3278 15.0946 26.337 14.5513 26.0056 14.2383C25.6925 13.916 25.1585 13.9252 24.8454 14.2383L20.1219 18.9618L15.4076 14.2383C15.0854 13.9252 14.5513 13.916 14.2383 14.2383C13.916 14.5513 13.9252 15.0946 14.2383 15.4076L18.9525 20.1219L14.2383 24.8454Z" fill="white"/>
</svg>
