<svg xmlns="http://www.w3.org/2000/svg" viewBox="0 0 64 64" id="Rupee">
  <path fill="#0eef91" d="M57 47h4V13H7v4" class="colorefac0e svgShape"></path>
  <path fill="#52cc99" d="M3 17h54v34H3z" class="color5ba538 svgShape"></path>
  <path fill="#ffffff" d="M7 41.54V26.46A4 4 0 0 0 12.46 21h35.08A4 4 0 0 0 53 26.46v15.08A4 4 0 0 0 47.54 47H12.46A4 4 0 0 0 7 41.54Z" class="colord1d1d1 svgShape"></path>
  <circle cx="31" cy="34" r="11" fill="#0eef91" class="colorefac0e svgShape"></circle>
  <path fill="#03ea89" d="M31 23a12.31 12.31 0 0 0-1.5.11 11 11 0 0 1 0 21.78A12.31 12.31 0 0 0 31 45a11 11 0 0 0 0-22Z" class="colorea9603 svgShape"></path>
  <path fill="#216649" d="M37 28v-2H25v2h4.5a3.5 3.5 0 0 1 3.15 2H25v2h8a3.51 3.51 0 0 1-3.45 3H26a1 1 0 0 0-.95.71 1 1 0 0 0 .38 1.13l10 7.07 1.14-1.66-7.4-5.23h.33a5.52 5.52 0 0 0 5.47-5h2V30h-2.18a5.49 5.49 0 0 0-1-2Z" class="color664121 svgShape"></path>
</svg>
