<svg width="25" height="26" viewBox="0 0 25 26" fill="none" xmlns="http://www.w3.org/2000/svg">
<g clip-path="url(#clip0_350_244)">
<path d="M12 16L15 13M15 13L12 10M15 13H4M9 8.24859V8.2002C9 7.08009 9 6.51962 9.21799 6.0918C9.40973 5.71547 9.71547 5.40973 10.0918 5.21799C10.5196 5 11.0801 5 12.2002 5H16.8002C17.9203 5 18.4796 5 18.9074 5.21799C19.2837 5.40973 19.5905 5.71547 19.7822 6.0918C20 6.5192 20 7.07899 20 8.19691V17.8036C20 18.9215 20 19.4805 19.7822 19.9079C19.5905 20.2842 19.2837 20.5905 18.9074 20.7822C18.48 21 17.921 21 16.8031 21H12.1969C11.079 21 10.5192 21 10.0918 20.7822C9.71547 20.5905 9.40973 20.2839 9.21799 19.9076C9 19.4798 9 18.9201 9 17.8V17.75" stroke="#DB5757" stroke-linecap="round" stroke-linejoin="round"/>
</g>
<defs>
<clipPath id="clip0_350_244">
<rect width="16" height="16" fill="white" transform="translate(4 5)"/>
</clipPath>
</defs>
</svg>
