<svg width="40" height="40" viewBox="0 0 40 40" fill="none" xmlns="http://www.w3.org/2000/svg">
<rect width="40" height="40" rx="20" fill="#1B3044"/>
<path d="M18 25.5C18 25.8978 18.158 26.2794 18.4393 26.5607C18.7206 26.842 19.1022 27 19.5 27C19.8978 27 20.2794 26.842 20.5607 26.5607C20.842 26.2794 21 25.8978 21 25.5C21 25.1022 20.842 24.7206 20.5607 24.4393C20.2794 24.158 19.8978 24 19.5 24C19.1022 24 18.7206 24.158 18.4393 24.4393C18.158 24.7206 18 25.1022 18 25.5ZM18 20.5C18 20.8978 18.158 21.2794 18.4393 21.5607C18.7206 21.842 19.1022 22 19.5 22C19.8978 22 20.2794 21.842 20.5607 21.5607C20.842 21.2794 21 20.8978 21 20.5C21 20.1022 20.842 19.7206 20.5607 19.4393C20.2794 19.158 19.8978 19 19.5 19C19.1022 19 18.7206 19.158 18.4393 19.4393C18.158 19.7206 18 20.1022 18 20.5ZM18 15.5C18 15.8978 18.158 16.2794 18.4393 16.5607C18.7206 16.842 19.1022 17 19.5 17C19.8978 17 20.2794 16.842 20.5607 16.5607C20.842 16.2794 21 15.8978 21 15.5C21 15.1022 20.842 14.7206 20.5607 14.4393C20.2794 14.158 19.8978 14 19.5 14C19.1022 14 18.7206 14.158 18.4393 14.4393C18.158 14.7206 18 15.1022 18 15.5Z" fill="white"/>
</svg>
