<svg width="25" height="26" viewBox="0 0 25 26" fill="none" xmlns="http://www.w3.org/2000/svg">
<path d="M12.5 12.1477C13.3241 12.1477 14.1297 11.8978 14.8149 11.4296C15.5001 10.9613 16.0341 10.2958 16.3495 9.51712C16.6649 8.73846 16.7474 7.88164 16.5866 7.05501C16.4258 6.22839 16.029 5.46909 15.4463 4.87313C14.8636 4.27716 14.1211 3.87131 13.3129 3.70688C12.5046 3.54246 11.6668 3.62685 10.9055 3.94938C10.1441 4.27191 9.49338 4.8181 9.03554 5.51888C8.5777 6.21966 8.33333 7.04355 8.33333 7.88637C8.33466 9.01613 8.77407 10.0992 9.55518 10.8981C10.3363 11.697 11.3953 12.1464 12.5 12.1477ZM12.5 5.32955C12.9945 5.32955 13.4778 5.4795 13.8889 5.76045C14.3 6.0414 14.6205 6.44072 14.8097 6.90791C14.9989 7.37511 15.0484 7.8892 14.952 8.38518C14.8555 8.88115 14.6174 9.33673 14.2678 9.69431C13.9181 10.0519 13.4727 10.2954 12.9877 10.3941C12.5028 10.4927 12.0001 10.4421 11.5433 10.2486C11.0865 10.055 10.696 9.72732 10.4213 9.30686C10.1466 8.88639 10 8.39206 10 7.88637C10 7.20825 10.2634 6.55792 10.7322 6.07842C11.2011 5.59893 11.837 5.32955 12.5 5.32955ZM5.83333 22.375H19.1667C19.3877 22.375 19.5996 22.2852 19.7559 22.1254C19.9122 21.9655 20 21.7488 20 21.5227V18.1136C19.9987 16.9839 19.5593 15.9008 18.7782 15.1019C17.997 14.303 16.938 13.8536 15.8333 13.8523H9.16667C8.062 13.8536 7.00296 14.303 6.22185 15.1019C5.44073 15.9008 5.00132 16.9839 5 18.1136V21.5227C5 21.7488 5.0878 21.9655 5.24408 22.1254C5.40036 22.2852 5.61232 22.375 5.83333 22.375ZM6.66667 18.1136C6.66667 17.4355 6.93006 16.7852 7.3989 16.3057C7.86774 15.8262 8.50363 15.5568 9.16667 15.5568H15.8333C16.4964 15.5568 17.1323 15.8262 17.6011 16.3057C18.0699 16.7852 18.3333 17.4355 18.3333 18.1136V20.6705H6.66667V18.1136Z" fill="#00E39C"/>
</svg>
