<svg width="25" height="26" viewBox="0 0 25 26" fill="none" xmlns="http://www.w3.org/2000/svg">
<path fill-rule="evenodd" clip-rule="evenodd" d="M12.3333 13.6822C11.1826 13.6822 10.25 12.681 10.25 11.4457C10.25 10.2105 11.1826 9.2093 12.3333 9.2093C13.484 9.2093 14.4167 10.2105 14.4167 11.4457C14.4167 12.681 13.484 13.6822 12.3333 13.6822ZM12.3333 7.71834C10.416 7.71834 8.86111 9.38672 8.86111 11.4457C8.86111 13.5047 10.416 15.1731 12.3333 15.1731C14.2507 15.1731 15.8056 13.5047 15.8056 11.4457C15.8056 9.38672 14.2507 7.71834 12.3333 7.71834ZM12.3333 20.8659C11.1785 20.8726 5.38889 14.5626 5.38889 11.4457C5.38889 7.3292 8.49792 3.99096 12.3333 3.99096C16.1687 3.99096 19.2778 7.3292 19.2778 11.4457C19.2778 14.5208 13.4701 20.8726 12.3333 20.8659ZM12.3333 2.5C7.73125 2.5 4 6.50545 4 11.4457C4 15.1865 10.9479 23.1105 12.3333 23.1023C13.6972 23.1105 20.6667 15.1358 20.6667 11.4457C20.6667 6.50545 16.9354 2.5 12.3333 2.5Z" fill="#00E39C"/>
</svg>
