<svg width="25" height="26" viewBox="0 0 25 26" fill="none" xmlns="http://www.w3.org/2000/svg">
<path fill-rule="evenodd" clip-rule="evenodd" d="M19.3994 10.8883V18.4901H17.6525V17.3154H7.34884V18.4901H5.60186V10.8883H5V9.71987H6.46985L7.28902 7.12717C7.53074 6.36227 7.9336 5.66815 8.72225 5.66815H16.583C17.3717 5.66815 17.8258 6.34861 18.0163 7.12592L18.6499 9.71862H20.0001V10.8871H19.3994V10.8883ZM9.88446 14.9698H15.0448V16.2078H9.88446V14.9698ZM6.18663 12.0866C7.50144 12.1288 8.30595 12.6888 8.51227 13.8573H6.18663V12.0866ZM18.6486 12.0866C17.3338 12.1288 16.5293 12.6888 16.323 13.8573H18.6486V12.0866ZM7.09735 9.71862H17.9039L17.4413 7.54438C17.3143 6.94836 16.9493 6.43305 16.3486 6.43305H8.87485C8.27421 6.43305 7.96657 6.96202 7.78222 7.54438L7.09735 9.71862Z" fill="#00E39C"/>
</svg>
