<svg xmlns="http://www.w3.org/2000/svg" enable-background="new 0 0 66 66" viewBox="0 0 66 66" id="IdCard">
  <ellipse cx="35.6" cy="22.5" fill="#8ac6ad" rx="3" ry="1.7" transform="rotate(-75.707 35.628 22.478)" class="colorc6a28a svgShape"></ellipse>
  <ellipse cx="11.7" cy="22.5" fill="#9fd5be" rx="3" ry="1.7" transform="rotate(-104.293 11.65 22.477)" class="colord5b79f svgShape"></ellipse>
  <rect width="9.3" height="7.6" x="18.7" y="32.2" fill="#9fd5be" class="colord5b79f svgShape"></rect>
  <rect width="4.7" height="7.6" x="18.7" y="32.2" fill="#8ac6ad" class="colorc6a28a svgShape"></rect>
  <ellipse cx="23.7" cy="20.6" fill="#9fd5be" rx="11.7" ry="14.4" class="colord5b79f svgShape"></ellipse>
  <path fill="#8ac6ad" d="M23.7,6.2C23.7,6.2,23.7,6.2,23.7,6.2l0,28.7c0,0,0,0,0,0c6.4,0,11.7-6.4,11.7-14.4S30.1,6.2,23.7,6.2z" class="colorc6a28a svgShape"></path>
  <path fill="#d4dbd8" d="M43.9,51.8c0.1-4-2.7-6.7-5.9-9c-3.2-2.3-9.9-4.6-9.9-4.6l-4.4,1.5l-0.3-0.4l-4.1-1.1c0,0-6.7,2.3-9.9,4.6
			c-3.2,2.3-6,5-5.9,9c0.1,4,0,13.2,0,13.2h20.2h20.2C43.9,65,43.8,55.8,43.9,51.8z" class="colord4d8db svgShape"></path>
  <path fill="#ffffff" d="M43.9,51.8c0.1-4-2.7-6.7-5.9-9c-3.2-2.3-9.9-4.6-9.9-4.6l-4.7,1.1l0,25.5h20.5
			C43.9,65,43.8,55.8,43.9,51.8z" class="colore6e6e8 svgShape"></path>
  <path fill="#d4dbd8" d="M43.9,65H23.4c0,0,0,0,0,0c5-13.1,5.4-23.8,5.4-26.4c0.6,0.2,1.4,0.5,2.4,0.9c2.2,0.9,5,2.1,6.7,3.4
			c3.2,2.3,6,5,5.9,9C43.8,55.8,43.9,65,43.9,65z" class="colord4d8db svgShape"></path>
  <path fill="#ffffff" d="M23.4,65L23.4,65L23.4,65l0-0.1C23.4,64.9,23.4,65,23.4,65z" class="colore6e6e8 svgShape"></path>
  <polygon fill="#4ae8a6" points="24.9 39.5 21.9 39.5 20.5 41.8 21.9 44.1 24.9 44.1 26.4 41.8" class="colore8664a svgShape"></polygon>
  <polygon fill="#39d996" points="26.4 41.8 24.9 39.5 23.4 39.5 23.4 44.1 24.9 44.1" class="colord95239 svgShape"></polygon>
  <polygon fill="#b5beba" points="28.1 36 23.4 39.5 27.9 43 29.1 38.7" class="colorb5babe svgShape"></polygon>
  <polygon fill="#ffffff" points="18.7 36 23.4 39.5 19 43 17.8 38.9" class="colore6e6e8 svgShape"></polygon>
  <polygon fill="#4ae8a6" points="26.2 65 23.4 65 23.4 44.1 24.9 44.1" class="colore8664a svgShape"></polygon>
  <polygon fill="#39d996" points="23.4 65 20.6 65 21.9 44.1 23.4 44.1" class="colord95239 svgShape"></polygon>
  <path fill="#466a5b" d="M36.8,12.7c0-0.2-0.1-0.5-0.1-0.8c0-0.2-0.1-0.5-0.2-0.8c0,0,0,0,0,0c-0.5-2.4-1.2-5.2-2.8-6.5
			c-1.6-1.2-2.9-0.7-2.9-0.7v0c-1.7-1-3.9-2.6-6.6-2.8c-0.1,0-0.1,0-0.2,0l0,0h-0.3h0h-0.3c-9.7,0.6-12.5,8.4-12.7,11.7
			c-0.2,2.8,1,9.5,1.3,11.1c0,0.2,0.2,0.3,0.4,0.3c0.2,0,0.4-0.2,0.4-0.4c0-1.2,0-4.3,0.7-5.9c11.1,1.3,12.8-4.2,15.3-5.6
			c2.6,0.9,4.4,4.4,5,5.3v0c0.4,0.7,0.6,1.9,0.8,3.1c0.1,1.2,0.1,2.4,0.1,3c0,0.1,0,0.1,0,0.2c0,0.1,0.1,0.2,0.2,0.2
			c0.1,0,0.1,0,0.2,0h0c0.2,0,0.4-0.1,0.4-0.3c0.1-0.4,0.2-1.1,0.4-2c0.3-1.8,0.7-4.3,0.9-6.4C36.8,14.3,36.8,13.4,36.8,12.7z" class="color465c6a svgShape"></path>
  <path fill="#3b564b" d="M36.8 12.7c0-.2-.1-.5-.1-.8 0-.2-.1-.5-.2-.8 0 0 0 0 0 0-.5-2.4-1.2-5.2-2.8-6.5-1.6-1.2-2.9-.7-2.9-.7v0c-1.7-1-3.9-2.6-6.6-2.8-.1 0-.1 0-.2 0h-.4v15.5c2.6-1.4 3.8-3.5 5.2-4.3 2.6.9 4.4 4.4 5 5.3v0c.4.7.6 1.9.8 3.1.1 1.2.1 2.4.1 3 0 .1 0 .1 0 .2 0 .1.1.2.2.2.1 0 .1 0 .2 0l0 0c.2 0 .4-.1.4-.3.1-.4.2-1.1.4-2 .3-1.8.7-4.3.9-6.4C36.8 14.3 36.8 13.4 36.8 12.7zM23.4 65L23.4 65 3.5 65c0 0 .1-9.2 0-13.2-.1-4 2.7-6.7 5.9-9 1.6-1.2 4.2-2.3 6.3-3.2.9-.4 1.7-.7 2.4-.9 0 3 .4 13.4 5.3 26.1C23.4 64.9 23.4 65 23.4 65z" class="color3b4c56 svgShape"></path>
  <path fill="#466a5b" d="M43.9,65H23.4c0,0,0,0,0,0c5-13.1,5.4-23.8,5.4-26.4c0.6,0.2,1.4,0.5,2.4,0.9c2.2,0.9,5,2.1,6.7,3.4
			c3.2,2.3,6,5,5.9,9C43.8,55.8,43.9,65,43.9,65z" class="color465c6a svgShape"></path>
  <g fill="#000000" class="color000000 svgShape">
    <path fill="#3b564b" d="M31,48.7l0.8,2.9c-2.7,8.4-8.1,13.1-8.4,13.3c5-13.1,5.4-23.8,5.4-26.4c0-0.4,0-0.6,0-0.6l2.4,1.6v0
				l1.3,7.2L31,48.7z" class="color3b4c56 svgShape"></path>
    <path fill="#466a5b" d="M23.4,65C23.4,65,23.4,65,23.4,65c-0.5-0.5-5.2-5.1-7.8-13.3l0.9-2.9l-1.6-2l0.9-7l2.4-1.8
				c0,0,0,0.3,0,0.8c0,3,0.4,13.4,5.3,26.1C23.4,64.9,23.4,65,23.4,65z" class="color465c6a svgShape"></path>
  </g>
  <path fill="#ffffff" d="M60.4,46H38.7c-1.2,0-2.1,0.9-2.1,2.1v14.6c0,1.2,0.9,2.1,2.1,2.1h21.7c1.2,0,2.1-0.9,2.1-2.1V48.1
		C62.5,47,61.6,46,60.4,46z" class="colore6e6e8 svgShape"></path>
  <g fill="#000000" class="color000000 svgShape">
    <path fill="#466a5b" d="M48.1,59.2c0-0.2,0-0.3,0-0.4c0-0.1-0.1-0.3-0.1-0.4c-0.1-0.1-0.1-0.2-0.2-0.3c-0.2-0.2-0.5-0.5-0.8-0.7
			c-0.3-0.2-0.7-0.4-1.1-0.6c-0.1,0-0.2-0.1-0.3-0.1v0l-0.5-0.3l-0.2-0.4v-0.4c0.6-0.3,1.1-0.9,1.3-1.7c0,0,0,0,0,0
			c0.2,0,0.4-0.2,0.5-0.5s0-0.6-0.2-0.7c0,0,0,0,0,0c0-0.3,0.1-0.5,0.1-0.8c0,0,0,0,0,0c0-0.2,0-0.3,0-0.4c0,0,0-0.1,0-0.1
			c0,0,0-0.1,0-0.2c0,0,0-0.1,0-0.2c0,0,0,0,0,0c0-0.1,0-0.1,0-0.2c0-0.1-0.1-0.3-0.1-0.4c0-0.1-0.1-0.2-0.1-0.3
			c-0.1-0.2-0.2-0.3-0.3-0.4c-0.3-0.3-0.6-0.1-0.6-0.1v0c-0.2-0.1-0.5-0.3-0.8-0.4c-0.2-0.1-0.3-0.1-0.5-0.1c0,0,0,0,0,0h-0.1l0,0
			H44c-1.9,0.1-2.5,1.7-2.6,2.3c0,0.3,0,0.9,0.1,1.4c0,0,0,0-0.1,0c-0.2,0-0.3,0.3-0.2,0.7c0.1,0.3,0.3,0.6,0.5,0.5c0,0,0,0,0.1,0
			c0.2,0.7,0.6,1.3,1.2,1.7v0.5l-0.1,0.4l0,0l-0.5,0.4c-0.2,0.1-0.4,0.2-0.6,0.3c0,0,0,0,0,0c0,0-0.1,0-0.1,0.1c0,0,0,0-0.1,0
			c0,0-0.1,0-0.1,0.1c0,0,0,0-0.1,0c-0.1,0.1-0.2,0.1-0.3,0.2c-0.7,0.5-1.2,1-1.2,1.8c0,0.8,0,2.6,0,2.6h0v0h4h0l0,0h0l0,0h4.1
			C48.1,61.9,48.1,60,48.1,59.2z" class="color465c6a svgShape"></path>
    <rect width="8.7" height="2.4" x="50.4" y="50" fill="#52cc99" class="color1e87b7 svgShape"></rect>
    <rect width="8.7" height="2.4" x="50.4" y="54.3" fill="#52cc99" class="color1e87b7 svgShape"></rect>
    <rect width="4.3" height="2.4" x="54.7" y="58.5" fill="#52cc99" class="color1e87b7 svgShape"></rect>
  </g>
  <rect width="5.8" height="7.9" x="46.6" y="39.8" fill="#4ae8a6" class="colore8664a svgShape"></rect>
  <circle cx="49.5" cy="42.8" r="1.6" fill="#ffffff" class="colore6e6e8 svgShape"></circle>
</svg>
