<svg xmlns="http://www.w3.org/2000/svg" enable-background="new 0 0 400 400" version="1" viewBox="0 0 400 400" id="Car">
  <path fill="#4fecaa" d="M200,77.796h21.151c22.069,0,39.96,20.605,39.96,46.022v21.334c0,10.384-7.048,20.097-7.048,20.097
			l-0.048,41.274c0,0.002,0.048,41.276,0.048,41.276s7.048,9.713,7.048,20.097v27.42c0,14.849-10.452,26.887-23.346,26.887H200
			h-37.766c-12.893,0-23.345-12.038-23.345-26.887v-27.42c0-10.384,7.048-20.097,7.048-20.097s0.049-41.274,0.049-41.276
			l-0.049-41.274c0,0-7.048-9.714-7.048-20.097v-21.334c0-25.417,17.891-46.022,39.96-46.022H200z" class="colorec4f4f svgShape"></path>
  <polygon fill="#48d69b" points="164.874 278.46 145.936 247.8 145.936 165.25 158.625 135.978 169.457 167.849 191.746 219.717 179.874 286.374" class="colord64848 svgShape"></polygon>
  <polygon fill="#48d69b" points="235.126 278.46 215.962 322.204 200 322.204 184.038 322.204 164.874 278.46" class="colord64848 svgShape"></polygon>
  <path fill="#373d3a" d="M156.542,149.935c0,0,12.915,34.996,12.915,64.158c0,47.494-12.915,45.15-12.915,45.15V149.935z" class="color373c3d svgShape"></path>
  <polygon fill="#48d69b" points="235.091 278.46 254.029 247.8 254.029 165.25 241.341 135.978 230.509 167.849 208.22 219.717 220.091 286.374" class="colord64848 svgShape"></polygon>
  <path fill="#373d3a" d="M243.424,149.935c0,0-12.915,34.996-12.915,64.158c0,47.494,12.915,45.15,12.915,45.15V149.935z" class="color373c3d svgShape"></path>
  <rect width="16.474" height="29.684" x="191.746" y="292.521" fill="#ffffff" class="colorffe6c4 svgShape"></rect>
  <rect width="16.474" height="48.757" x="191.746" y="77.796" fill="#ffffff" class="colorffe6c4 svgShape"></rect>
  <rect width="3.476" height="48.757" x="185.529" y="77.796" fill="#ffffff" class="colorffe6c4 svgShape"></rect>
  <rect width="3.476" height="48.757" x="211.099" y="77.796" fill="#ffffff" class="colorffe6c4 svgShape"></rect>
  <path fill="#52cc99" d="M158.625,135.978l8.749,31.715H200v-43.588C172.009,124.105,158.625,135.978,158.625,135.978z" class="color575f61 svgShape"></path>
  <path fill="#373d3a" d="M241.375,135.978c0,0-13.384-11.873-41.375-11.873v43.588h32.626L241.375,135.978z" class="color373c3d svgShape"></path>
  <path fill="#61ffbd" d="M200,298.457c14.034,0,29.814-10.311,35.126-19.997c-2.5-10.624-2.5-10.624-6.817-28.072
			c-2.297-9.283-2.052-20.172-2.052-30.67c0-19.045,1.787-37.027,6.369-52.025c-5.833-8.332-16.664-9.842-32.626-9.842
			c-15.962,0-26.794,1.51-32.626,9.842c4.583,14.998,6.369,32.98,6.369,52.025c0,10.497,0.245,21.387-2.052,30.67
			c-4.317,17.448-4.317,17.448-6.817,28.072C170.186,288.146,185.966,298.457,200,298.457z" class="colorff6161 svgShape"></path>
  <path fill="#373d3a" d="M200,292.208c17.573,0,30.543-13.748,30.543-13.748s-1.354-5.78-5.729-24.059
			c-4.895,3.854-13.019,4.999-24.815,4.999c-11.796,0-19.92-1.146-24.815-4.999c-4.374,18.279-5.728,24.059-5.728,24.059
			S182.427,292.208,200,292.208z" class="color373c3d svgShape"></path>
  <polygon fill="#61ffbd" points="249.52 269.086 231.416 315.955 242.282 310.331" class="colorff6161 svgShape"></polygon>
  <polygon fill="#61ffbd" points="150.48 269.086 168.584 315.955 157.718 310.331" class="colorff6161 svgShape"></polygon>
  <g fill="#000000" class="color000000 svgShape">
    <polygon fill="#61ffbd" points="249.52 143.2 231.416 96.331 242.282 101.956" class="colorff6161 svgShape"></polygon>
    <polygon fill="#61ffbd" points="150.48 143.2 168.584 96.331 157.718 101.956" class="colorff6161 svgShape"></polygon>
  </g>
  <g fill="#000000" class="color000000 svgShape">
    <path fill="#373d3a" d="M147.984 100.322l25.413-19.301C173.397 81.021 154.257 81.503 147.984 100.322zM251.982 100.322l-25.413-19.301C226.568 81.021 245.709 81.503 251.982 100.322z" class="color373c3d svgShape"></path>
  </g>
</svg>
