<svg width="10" height="8" viewBox="0 0 10 8" fill="none" xmlns="http://www.w3.org/2000/svg">
<path d="M4.5469 4.70916L1.47616 7.68323C1.26391 7.88879 0.920713 7.88879 0.710728 7.68323L0.200442 7.18901C-0.0118009 6.98345 -0.0118009 6.65105 0.200442 6.44768L2.37706 4.33959L0.200442 2.2315C-0.0118009 2.02594 -0.0118009 1.69354 0.200442 1.49017L0.70847 0.991573C0.920713 0.786012 1.26391 0.786012 1.4739 0.991573L4.54465 3.96564C4.75915 4.1712 4.75915 4.5036 4.5469 4.70916ZM8.88208 3.96564L5.81133 0.991573C5.59909 0.786012 5.25589 0.786012 5.0459 0.991573L4.53562 1.48579C4.32337 1.69135 4.32337 2.02375 4.53562 2.22712L6.71223 4.33522L4.53562 6.44331C4.32337 6.64887 4.32337 6.98126 4.53562 7.18464L5.0459 7.67886C5.25814 7.88442 5.60135 7.88442 5.81133 7.67886L8.88208 4.70479C9.09432 4.5036 9.09432 4.1712 8.88208 3.96564Z" fill="#00DD98"/>
</svg>
