<svg width="40" height="40" viewBox="0 0 40 40" fill="none" xmlns="http://www.w3.org/2000/svg">
<rect width="40" height="40" rx="20" fill="#1B3044"/>
<path d="M23.1339 29H16.8662M13.7323 16.6C13.7323 15.1148 14.3926 13.6904 15.5681 12.6402C16.7435 11.59 18.3377 11 20 11C21.6623 11 23.2565 11.59 24.432 12.6402C25.6074 13.6904 26.2678 15.1148 26.2678 16.6C26.2678 19.2862 26.9741 21.1835 27.806 22.4866C28.6117 23.7486 29.0146 24.3797 28.9996 24.5436C28.9828 24.7277 28.9448 24.7925 28.7894 24.9023C28.6511 25 27.9939 25 26.6793 25H13.3207C12.0062 25 11.3489 25 11.2106 24.9023C11.0552 24.7925 11.0172 24.7277 11.0004 24.5436C10.9855 24.3797 11.3884 23.7486 12.194 22.4866C13.0259 21.1835 13.7323 19.2862 13.7323 16.6Z" stroke="white" stroke-width="2" stroke-linecap="round" stroke-linejoin="round"/>
</svg>
