<svg xmlns="http://www.w3.org/2000/svg" viewBox="0 0 53 53" id="Bell">
  <path fill="#ffcf99" d="M26.502 11.566a4.538 4.538 0 0 1-4.535-4.53A4.54 4.54 0 0 1 26.502 2.5a4.538 4.538 0 0 1 4.531 4.535 4.536 4.536 0 0 1-4.53 4.531zm0-6.724c-1.209 0-2.193.984-2.193 2.193a2.191 2.191 0 1 0 2.193-2.193z" class="colorf9b938 svgShape"></path>
  <path fill="#ffffff" d="m23.039 7.046-.024-.001a.3.3 0 0 1-.275-.323 3.76 3.76 0 0 1 .11-.643.295.295 0 0 1 .366-.214.3.3 0 0 1 .214.366 3.141 3.141 0 0 0-.092.54.3.3 0 0 1-.299.275zm.696-1.816a.301.301 0 0 1-.24-.481 3.803 3.803 0 0 1 1.438-1.151.3.3 0 0 1 .25.545 3.185 3.185 0 0 0-1.208.97.301.301 0 0 1-.24.117z" opacity=".2" class="colorffffff svgShape"></path>
  <path fill="#202020" d="M29.205 3.409c.492.718.773 1.585.773 2.514a4.538 4.538 0 0 1-4.536 4.528 4.479 4.479 0 0 1-2.724-.922 4.531 4.531 0 0 0 8.314-2.49c0-1.491-.718-2.81-1.827-3.63z" class="colorecb021 svgShape"></path>
  <path fill="#ffcf99" d="M44.112 40.367a3.006 3.006 0 0 1-3.006 3.005H11.894a3.006 3.006 0 0 1 0-6.011h29.212a3.006 3.006 0 0 1 3.006 3.006z" class="colorf9b938 svgShape"></path>
  <path fill="#202020" d="M44.109 40.367a3.002 3.002 0 0 1-3.006 3.005H11.897a3.002 3.002 0 0 1-2.896-2.201 2.987 2.987 0 0 0 2.397 1.194h29.205a3.007 3.007 0 0 0 2.897-3.802c.382.5.609 1.125.609 1.804z" class="colorecb021 svgShape"></path>
  <path fill="#ffcf99" d="M40.37 23.094V37.36H12.63V23.094c0-7.66 6.21-13.87 13.87-13.87 7.66 0 13.87 6.21 13.87 13.87z" class="colorf9b938 svgShape"></path>
  <path fill="#ffffff" d="M15.753 31.8a.78.78 0 0 1-.78-.78v-2.766a.78.78 0 1 1 1.56 0v2.766a.78.78 0 0 1-.78.78zm0-5.321a.78.78 0 0 1-.78-.78v-.432a.78.78 0 1 1 1.56 0v.431a.78.78 0 0 1-.78.78zm1.346-8.637a.78.78 0 0 1-.221-1.08c.15-.228.307-.449.472-.663a.78.78 0 1 1 1.238.95c-.142.185-.278.377-.408.572a.78.78 0 0 1-1.081.221zm2.237-2.784a.78.78 0 0 1 .142-1.095 11.421 11.421 0 0 1 6.78-2.389c.458.02.788.333.797.765a.78.78 0 0 1-.765.796 9.866 9.866 0 0 0-5.859 2.065.78.78 0 0 1-1.095-.142z" opacity=".2" class="colorffffff svgShape"></path>
  <path fill="#202020" d="M40.369 23.09v14.271H12.631v-1.733h11.125c7.882 0 14.271-6.39 14.271-14.271 0-3.833-1.554-7.3-4.06-9.806-.14-.14-.28-.273-.429-.413a14.002 14.002 0 0 1 2.771 2.146 13.823 13.823 0 0 1 4.06 9.806z" class="colorecb021 svgShape"></path>
  <path fill="#fc9159" d="M32.07 44.934c0 3.076-2.498 5.566-5.566 5.566s-5.574-2.49-5.574-5.566c0-.437.054-.96.148-1.562h10.844c.094.602.148 1.125.148 1.562z" class="colorfc6559 svgShape"></path>
  <path fill="#ffffff" d="M25.416 49.01a.592.592 0 0 1-.11-.01 3.184 3.184 0 0 1-2.344-1.927.585.585 0 1 1 1.087-.436c.25.624.815 1.088 1.474 1.213a.586.586 0 0 1-.107 1.16z" opacity=".2" class="colorffffff svgShape"></path>
  <path fill="#ed6f2d" d="M32.07 44.934a5.512 5.512 0 0 1-2.553 4.668A5.47 5.47 0 0 0 30.76 46.1c-.002-.862-.732-1.548-1.594-1.548h-8.227c.023-.351.07-.741.14-1.179h10.844c.094.602.148 1.125.148 1.562z" class="colorf05543 svgShape"></path>
  <path fill="#ffffff" d="M23.645 39.418a.78.78 0 0 1-.78.78h-5.741a.78.78 0 1 1 0-1.561h5.74c.432 0 .78.35.78.78zm-9.021 0a.78.78 0 0 1-.781.78h-.432a.78.78 0 1 1 0-1.561h.432c.431 0 .78.35.78.78z" opacity=".2" class="colorffffff svgShape"></path>
</svg>
