<svg width="25" height="25" viewBox="0 0 25 25" fill="none" xmlns="http://www.w3.org/2000/svg">
<path d="M19.5833 4H5.41667C4.6375 4 4 4.51 4 5.13333V19.8667C4 20.49 4.6375 21 5.41667 21H19.5833C20.3625 21 21 20.49 21 19.8667V5.13333C21 4.51 20.3625 4 19.5833 4ZM8.25 16.4667C7.859 16.4667 7.54167 16.2128 7.54167 15.9C7.54167 15.5872 7.859 15.3333 8.25 15.3333C8.641 15.3333 8.95833 15.5872 8.95833 15.9C8.95833 16.2128 8.641 16.4667 8.25 16.4667ZM8.25 14.2C7.859 14.2 7.54167 13.9461 7.54167 13.6333C7.54167 13.3205 7.859 13.0667 8.25 13.0667C8.641 13.0667 8.95833 13.3205 8.95833 13.6333C8.95833 13.9461 8.641 14.2 8.25 14.2ZM8.25 11.9333C7.859 11.9333 7.54167 11.6795 7.54167 11.3667C7.54167 11.0539 7.859 10.8 8.25 10.8C8.641 10.8 8.95833 11.0539 8.95833 11.3667C8.95833 11.6795 8.641 11.9333 8.25 11.9333ZM8.25 9.66667C7.859 9.66667 7.54167 9.4128 7.54167 9.1C7.54167 8.7872 7.859 8.53333 8.25 8.53333C8.641 8.53333 8.95833 8.7872 8.95833 9.1C8.95833 9.4128 8.641 9.66667 8.25 9.66667ZM16.75 16.4667H11.0833C10.6923 16.4667 10.375 16.2128 10.375 15.9C10.375 15.5872 10.6923 15.3333 11.0833 15.3333H16.75C17.141 15.3333 17.4583 15.5872 17.4583 15.9C17.4583 16.2128 17.141 16.4667 16.75 16.4667ZM16.75 14.2H11.0833C10.6923 14.2 10.375 13.9461 10.375 13.6333C10.375 13.3205 10.6923 13.0667 11.0833 13.0667H16.75C17.141 13.0667 17.4583 13.3205 17.4583 13.6333C17.4583 13.9461 17.141 14.2 16.75 14.2ZM16.75 11.9333H11.0833C10.6923 11.9333 10.375 11.6795 10.375 11.3667C10.375 11.0539 10.6923 10.8 11.0833 10.8H16.75C17.141 10.8 17.4583 11.0539 17.4583 11.3667C17.4583 11.6795 17.141 11.9333 16.75 11.9333ZM16.75 9.66667H11.0833C10.6923 9.66667 10.375 9.4128 10.375 9.1C10.375 8.7872 10.6923 8.53333 11.0833 8.53333H16.75C17.141 8.53333 17.4583 8.7872 17.4583 9.1C17.4583 9.4128 17.141 9.66667 16.75 9.66667Z" fill="#00E39C"/>
</svg>
