<svg width="25" height="24" viewBox="0 0 25 24" fill="none" xmlns="http://www.w3.org/2000/svg">
<path d="M6.34278 4.31263C6.7332 4.72946 6.7332 5.40529 6.34278 5.82213C3.21839 9.15789 3.21839 14.5662 6.34278 17.902C6.7332 18.3188 6.7332 18.9947 6.34278 19.4115C5.95236 19.8283 5.31936 19.8283 4.92893 19.4115C1.02369 15.2421 1.02369 8.48207 4.92893 4.31263C5.31936 3.89579 5.95236 3.89579 6.34278 4.31263ZM19.0711 4.31263C22.9763 8.48207 22.9763 15.2421 19.0711 19.4115C18.6806 19.8283 18.0476 19.8283 17.6572 19.4115C17.2668 18.9947 17.2668 18.3188 17.6572 17.902C20.7816 14.5662 20.7816 9.15789 17.6572 5.82213C17.2668 5.40529 17.2668 4.72946 17.6572 4.31263C18.0476 3.89579 18.6806 3.89579 19.0711 4.31263ZM9.30867 7.3796C9.69909 7.79644 9.69909 8.47227 9.30867 8.8891C7.7781 10.5232 7.7781 13.1726 9.30867 14.8068C9.69909 15.2236 9.69909 15.8994 9.30867 16.3163C8.91824 16.7331 8.28524 16.7331 7.89482 16.3163C5.5834 13.8485 5.5834 9.84739 7.89482 7.3796C8.28524 6.96277 8.91824 6.96277 9.30867 7.3796ZM16.2652 7.3796C18.5766 9.84739 18.5766 13.8485 16.2652 16.3163C15.8748 16.7331 15.2418 16.7331 14.8513 16.3163C14.4609 15.8994 14.4609 15.2236 14.8513 14.8068C16.3819 13.1726 16.3819 10.5232 14.8513 8.8891C14.4609 8.47227 14.4609 7.79644 14.8513 7.3796C15.2418 6.96277 15.8748 6.96277 16.2652 7.3796ZM12.08 10.3356C12.9082 10.3356 13.5796 11.0524 13.5796 11.9367C13.5796 12.8209 12.9082 13.5378 12.08 13.5378C11.2518 13.5378 10.5804 12.8209 10.5804 11.9367C10.5804 11.0524 11.2518 10.3356 12.08 10.3356Z" fill="#00E39C"/>
</svg>
