<svg width="18" height="18" viewBox="0 0 18 18" fill="none" xmlns="http://www.w3.org/2000/svg">
<path d="M7.98047 0.0722656H9.87891C10.0195 0.0722656 10.1426 0.142578 10.248 0.248047C10.3535 0.353516 10.4238 0.476562 10.4238 0.617188V7.41992H17.2266C17.3672 7.41992 17.4902 7.47266 17.5957 7.57812C17.7012 7.68359 17.7715 7.80664 17.7715 7.92969V9.72266C17.7715 9.86328 17.7012 10.0039 17.5957 10.1094C17.4902 10.2148 17.3672 10.2676 17.2266 10.2676H10.4238V17.0352C10.4238 17.1758 10.3535 17.3164 10.248 17.4219C10.1426 17.5273 10.0195 17.5801 9.87891 17.5801H7.98047C7.83984 17.5801 7.73438 17.5273 7.62891 17.4219C7.52344 17.3164 7.4707 17.1758 7.4707 17.0352V10.2676H0.632812C0.492188 10.2676 0.351562 10.2148 0.246094 10.1094C0.140625 10.0039 0.0878906 9.86328 0.0878906 9.72266V7.92969C0.0878906 7.80664 0.140625 7.68359 0.246094 7.57812C0.351562 7.47266 0.492188 7.41992 0.632812 7.41992H7.4707V0.617188C7.4707 0.476562 7.52344 0.353516 7.62891 0.248047C7.73438 0.142578 7.83984 0.0722656 7.98047 0.0722656Z" fill="#223131"/>
</svg>
