<svg xmlns="http://www.w3.org/2000/svg" viewBox="0 0 16 16" id="Plus">
  <path fill-rule="evenodd" d="M8 2c3.32 0 6 2.68 6 6s-2.68 6-6 6a5.994 5.994 0 0 1-6.002-6C1.998 4.68 4.68 2 8 2Zm-.014 2.004a.5.5 0 0 0-.492.508L7.5 7.504l-2.996.006c-.668.001-.666 1.003.002 1.002L7.5 8.506l.006 2.994c-.01.676 1.01.676 1 0l-.004-2.996 2.992-.006c.676.008.674-1.01-.002-1L8.5 7.504l-.004-2.992a.5.5 0 0 0-.51-.506Z" color="#000" font-family="sans-serif" font-weight="400" overflow="visible" style="line-height:normal;text-indent:0;text-align:start;text-decoration-line:none;text-decoration-style:solid;text-decoration-color:#000;text-transform:none;block-progression:tb;isolation:auto;mix-blend-mode:normal" fill="#52cc99" class="color000000 svgShape"></path>
</svg>
