<svg xmlns="http://www.w3.org/2000/svg" xml:space="preserve" id="3" x="0" y="0" version="1.1" viewBox="0 0 3000 2000" enable-background="new 0 0 3000 2000">
  <circle cx="1500" cy="1000" r="752" fill="#ffbf66" stroke="#000000" stroke-width="100" stroke-linejoin="round" stroke-miterlimit="10" class="colorffffff svgShape colorStroke000000 svgStroke"></circle>
  <g fill="#000000" class="color000000 svgShape">
    <path d="M1244.6,1250.7c38.4,19.9,126.7,57,215,57c112.5,0,169.4-54.1,169.4-123.9c0-91.1-91.1-132.4-186.5-132.4
		h-88.3V896.1h84c72.6-1.4,165.2-28.5,165.2-106.8c0-55.5-45.6-96.8-136.7-96.8c-75.5,0-155.2,32.7-193.7,55.5l-44.1-156.6
		c55.5-35.6,166.6-69.8,286.2-69.8c197.9,0,307.6,103.9,307.6,230.7c0,98.2-55.5,175.1-169.4,215v2.8
		c111.1,19.9,200.8,103.9,200.8,225c0,163.7-143.8,283.4-378.8,283.4c-119.6,0-220.7-31.3-274.8-65.5L1244.6,1250.7z" fill="#ffbf66" stroke="#000000" stroke-width="100" stroke-linejoin="round" stroke-miterlimit="10" class="colorffffff svgShape colorStroke000000 svgStroke"></path>
  </g>
</svg>
