<svg xmlns="http://www.w3.org/2000/svg" id="RupeeBag" enable-background="new 0 0 48 48" viewBox="0 0 48 48">
  <path fill="#ffc97d" d="M42.33,40.71c-1.79-2.89-2.48-9.86-2.48-16.07c0-6.97-10.07-7.55-10.07-12.2c0-3.48,5.06-7.51,7.59-9.31C36.66,2.35,36,1.5,34.58,1.5c-2.64,0-2.64,2.93-5.29,2.93c-2.64,0-2.64-2.93-5.29-2.93c-2.64,0-2.64,2.93-5.29,2.93c-2.65,0-2.65-2.93-5.29-2.93c-1.42,0-2.08,0.85-2.8,1.64c2.53,1.8,7.59,5.82,7.59,9.31c0,4.65-10.07,5.23-10.07,12.2c0,6.21-0.69,13.18-2.48,16.07C5.27,41.35,5.4,42.18,6,42.65c1.84,1.45,6.61,3.85,18,3.85s16.16-2.41,18-3.85C42.6,42.18,42.73,41.35,42.33,40.71z" class="colorfff27d svgShape"></path>
  <path fill="#ffbf66" d="M29.78 9.44c0 .5.12.96.34 1.38 1.16-3.04 5.11-6.16 7.26-7.69-.56-.61-1.08-1.26-1.96-1.51C32.86 3.68 29.78 6.73 29.78 9.44zM41.85 39.76C39.91 41.22 35.1 43.5 24 43.5S8.09 41.22 6.15 39.76C6 40.11 5.84 40.43 5.67 40.71 5.27 41.35 5.4 42.18 6 42.65c1.84 1.45 6.61 3.85 18 3.85 11.39 0 16.16-2.41 18-3.85.6-.47.73-1.3.33-1.94C42.16 40.43 42 40.11 41.85 39.76zM17.88 10.82c.21-.42.34-.88.34-1.38 0-2.72-3.07-5.76-5.63-7.82-.88.26-1.4.9-1.96 1.51C12.78 4.66 16.73 7.79 17.88 10.82z" class="colore4c364 svgShape"></path>
  <rect width="15.91" height="2" x="16.05" y="11.66" fill="#000000" class="color000000 svgShape"></rect>
  <path d="M24,47.5c-11.7,0-16.69-2.55-18.62-4.07c-0.99-0.78-1.23-2.18-0.56-3.25c1.44-2.32,2.33-8.27,2.33-15.54c0-4.39,3.47-6.56,6.26-8.29c2.04-1.27,3.8-2.37,3.8-3.9c0-2.13-2.68-5.3-7.17-8.49L9.13,3.3l0.91-1c0.72-0.8,1.62-1.8,3.39-1.8s2.67,1,3.39,1.8c0.67,0.75,1.06,1.14,1.9,1.14c0.84,0,1.23-0.39,1.9-1.14c0.72-0.8,1.62-1.8,3.38-1.8c1.77,0,2.67,1,3.39,1.8c0.67,0.75,1.06,1.14,1.9,1.14c0.84,0,1.23-0.39,1.9-1.13c0.72-0.8,1.62-1.8,3.39-1.8s2.67,1,3.39,1.8l0.91,1l-0.92,0.65c-4.49,3.19-7.17,6.36-7.17,8.49c0,1.53,1.76,2.63,3.8,3.9c2.79,1.74,6.26,3.9,6.26,8.29c0,7.27,0.89,13.22,2.33,15.54c0.67,1.08,0.43,2.47-0.56,3.25C40.69,44.95,35.7,47.5,24,47.5z M12.14,3c3,2.25,7.08,5.96,7.08,9.44c0,2.64-2.41,4.15-4.75,5.6c-2.62,1.63-5.32,3.32-5.32,6.6c0,2.9-0.19,12.66-2.63,16.6c-0.13,0.21-0.09,0.48,0.1,0.63C8.35,43.22,12.91,45.5,24,45.5c11.1,0,15.66-2.28,17.38-3.64c0.19-0.15,0.23-0.41,0.1-0.63v0c-2.44-3.94-2.63-13.7-2.63-16.6c0-3.28-2.71-4.97-5.32-6.6c-2.33-1.45-4.74-2.96-4.74-5.6c0-3.48,4.08-7.19,7.08-9.44c-0.37-0.33-0.73-0.5-1.29-0.5c-0.84,0-1.23,0.39-1.9,1.14c-0.72,0.8-1.62,1.8-3.38,1.8c-1.77,0-2.67-1-3.39-1.8C25.23,2.89,24.84,2.5,24,2.5c-0.84,0-1.23,0.39-1.9,1.13c-0.72,0.8-1.62,1.8-3.39,1.8s-2.67-1-3.39-1.8c-0.67-0.75-1.06-1.14-1.9-1.14C12.87,2.5,12.51,2.67,12.14,3z" fill="#000000" class="color000000 svgShape"></path>
  <path d="M25.09,32.26h-7.12v-2h7.12c2.17,0,3.94-1.76,3.94-3.93s-1.77-3.94-3.94-3.94h-7.12v-2h7.12c3.27,0,5.94,2.66,5.94,5.94S28.36,32.26,25.09,32.26z" fill="#000000" class="color000000 svgShape"></path>
  <polygon points="28.91 42.03 19.19 32.26 18.09 32.26 18.09 30.26 20.02 30.26 30.33 40.61" fill="#000000" class="color000000 svgShape"></polygon>
  <g fill="#000000" class="color000000 svgShape">
    <rect width="15.85" height="2" x="16.08" y="20.39" fill="#000000" class="color000000 svgShape"></rect>
  </g>
  <g fill="#000000" class="color000000 svgShape">
    <rect width="15.85" height="2" x="16.08" y="25.33" fill="#000000" class="color000000 svgShape"></rect>
  </g>
</svg>
