<svg xmlns="http://www.w3.org/2000/svg" viewBox="0 0 64 64" id="rupeemoneybag">
  <path fill="#11fc9a" d="M1076 384c-1.79 0-3.076 1.136-4.172 2.098-1.096.962-2.056 1.774-2.978 1.914-.913.138-2.695-.792-4.41-1.701-.858-.455-1.701-.887-2.628-1.024-.926-.137-2.07.24-2.66 1.184-.853 1.367-.481 2.991.3 4.334.78 1.342 1.984 2.602 3.245 3.734 2.523 2.265 5.317 3.998 5.317 3.998a1 1 0 0 0 .529.152h14.914a1 1 0 0 0 .53-.152s2.793-1.733 5.316-3.998c1.26-1.132 2.466-2.392 3.246-3.734.78-1.343 1.152-2.967.299-4.334-.59-.945-1.734-1.321-2.66-1.184-.927.137-1.77.569-2.628 1.024-1.715.909-3.497 1.839-4.41 1.7-.922-.139-1.882-.951-2.978-1.913-1.096-.962-2.382-2.098-4.172-2.098Zm-7.447 16.69a1 1 0 0 0-.366.068c-4.3 1.683-7.796 5.71-10.267 10.418-2.471 4.708-3.92 10.128-3.92 14.824 0 6.07 2.646 9.823 6.723 11.754C1064.8 439.685 1070.16 440 1076 440c5.84 0 11.2-.315 15.277-2.246S1098 432.069 1098 426c0-4.696-1.449-10.116-3.92-14.824s-5.966-8.735-10.268-10.418a1 1 0 0 0-.365-.069z" color="#000" style="-inkscape-stroke:none" transform="translate(-1044 -380)" class="color1163fc svgShape"></path>
  <path fill="#52cc99" d="M1067 396.69c-1.645 0-3 1.355-3 3 0 1.644 1.355 3 3 3h18c1.645 0 3-1.356 3-3 0-1.645-1.355-3-3-3z" color="#000" style="-inkscape-stroke:none" transform="translate(-1044 -380)" class="color85affd svgShape"></path>
  <path fill="#ffffff" d="M1072.31 413.344c-.293 0-.54.094-.74.281a.95.95 0 0 0-.28.7c0 .293.094.54.28.74.2.186.447.279.74.279h2.78c.52 0 .966.208 1.34.62.16.166.277.356.37.561h-4.49c-.293 0-.54.093-.74.28-.186.173-.28.406-.28.699 0 .293.094.54.28.74.2.187.447.281.74.281h4.534c-.037.114-.062.235-.113.34a2.352 2.352 0 0 1-.702.92c-.28.213-.572.327-.878.34h-2.801c-.28 0-.519.08-.719.24-.187.147-.281.359-.281.639 0 .293.095.528.281.701.2.16.439.24.719.24h2.26c.293 0 .567.04.82.12.253.066.473.18.66.34.187.146.333.34.44.58.106.24.16.525.16.859 0 .666.068 1.228.2 1.681.134.44.3.8.5 1.08.214.267.44.46.68.58.254.107.486.159.7.159.293 0 .528-.079.7-.239a.78.78 0 0 0 .28-.62.836.836 0 0 0-.119-.44.936.936 0 0 0-.361-.36.875.875 0 0 1-.36-.4 2.57 2.57 0 0 1-.14-.66l-.1-1.041a2.934 2.934 0 0 0-.32-1.18 3.615 3.615 0 0 0-.72-.959 3.157 3.157 0 0 0-.552-.433c.352-.201.681-.443.973-.746.333-.347.598-.734.798-1.16.093-.192.157-.386.21-.58h.63c.28 0 .52-.095.72-.282.2-.2.3-.439.3-.719a.92.92 0 0 0-.3-.7.982.982 0 0 0-.72-.3h-.78a2.883 2.883 0 0 0-.22-.4 3.207 3.207 0 0 0-.744-.781h1.744c.28 0 .52-.093.72-.28.2-.186.3-.419.3-.699a.942.942 0 0 0-.3-.72c-.2-.2-.44-.301-.72-.301z" font-family="Quicksand" font-size="20" font-weight="600" letter-spacing="1.5" style="line-height:1.25;-inkscape-font-specification:&quot;Quicksand Semi-Bold&quot;" transform="translate(-1044 -380)" class="colorbfd5fe svgShape"></path>
</svg>
