<svg width="24" height="24" viewBox="0 0 24 24" fill="none" xmlns="http://www.w3.org/2000/svg">
<path fill-rule="evenodd" clip-rule="evenodd" d="M11.4276 1.0217L11.7647 0L12.1018 1.0217L13.1776 1.02657L12.3101 1.66289L12.6379 2.68762L11.7647 2.0592L10.8914 2.68762L11.2192 1.66289L10.3518 1.02657L11.4276 1.0217ZM16.4913 2.42631L16.8284 1.40462L17.1655 2.42631L18.2413 2.43119L17.3738 3.06752L17.7016 4.09223L16.8284 3.46381L15.9551 4.09223L16.2829 3.06752L15.4155 2.43119L16.4913 2.42631ZM20.6006 4.99835L20.2635 6.01995L19.1876 6.02483L20.0551 6.66114L19.7273 7.68587L20.6006 7.05745L21.4738 7.68587L21.146 6.66114L22.0135 6.02483L20.9377 6.01995L20.6006 4.99835ZM21.7794 11.3734L22.1165 10.3517L22.4536 11.3734L23.5294 11.3783L22.662 12.0146L22.9897 13.0393L22.1165 12.4109L21.2433 13.0393L21.571 12.0146L20.7035 11.3783L21.7794 11.3734ZM20.4219 15.3042L20.0848 16.3258L19.009 16.3307L19.8765 16.967L19.5487 17.9917L20.4219 17.3633L21.2952 17.9917L20.9674 16.967L21.8349 16.3307L20.7591 16.3258L20.4219 15.3042ZM16.6698 19.9194L17.0069 18.8978L17.344 19.9194L18.4198 19.9244L17.5524 20.5607L17.8801 21.5853L17.0069 20.957L16.1337 21.5853L16.4614 20.5607L15.5939 19.9244L16.6698 19.9194ZM11.7647 20.7036L11.4276 21.7252L10.3518 21.73L11.2192 22.3664L10.8914 23.3911L11.7647 22.7627L12.6379 23.3911L12.3101 22.3664L13.1776 21.73L12.1018 21.7252L11.7647 20.7036ZM6.18545 19.9194L6.52254 18.8978L6.85962 19.9194L7.93547 19.9244L7.06802 20.5607L7.39575 21.5853L6.52254 20.957L5.64934 21.5853L5.97705 20.5607L5.1096 19.9244L6.18545 19.9194ZM3.10739 15.3042L2.77031 16.3258L1.69446 16.3308L2.562 16.967L2.23418 17.9917L3.10739 17.3633L3.98059 17.9917L3.65278 16.967L4.52033 16.3308L3.44448 16.3258L3.10739 15.3042ZM1.07585 11.3734L1.41294 10.3517L1.75002 11.3734L2.82587 11.3783L1.95842 12.0146L2.28624 13.0393L1.41294 12.4109L0.539732 13.0393L0.867546 12.0146L0 11.3783L1.07585 11.3734ZM2.92893 4.99835L2.59175 6.01995L1.51599 6.02483L2.38344 6.66114L2.05562 7.68587L2.92893 7.05745L3.80214 7.68587L3.47432 6.66114L4.34186 6.02483L3.26601 6.01995L2.92893 4.99835ZM6.36392 2.42631L6.70101 1.40462L7.03809 2.42631L8.11394 2.43119L7.24649 3.06752L7.57431 4.09223L6.70101 3.46381L5.8278 4.09223L6.15562 3.06752L5.28807 2.43119L6.36392 2.42631Z" fill="white"/>
</svg>
