<svg width="24" height="40" viewBox="0 0 24 40" fill="none" xmlns="http://www.w3.org/2000/svg">
<path fill-rule="evenodd" clip-rule="evenodd" d="M11.4276 1.0217L11.7647 0L12.1018 1.0217L13.1776 1.02657L12.3101 1.66289L12.6379 2.68762L11.7647 2.0592L10.8914 2.68762L11.2192 1.66289L10.3518 1.02657L11.4276 1.0217ZM16.4913 2.42631L16.8284 1.40462L17.1655 2.42631L18.2413 2.43119L17.3738 3.06752L17.7016 4.09223L16.8284 3.46381L15.9551 4.09223L16.2829 3.06752L15.4155 2.43119L16.4913 2.42631ZM20.6006 4.99835L20.2635 6.01995L19.1876 6.02483L20.0551 6.66114L19.7273 7.68587L20.6006 7.05745L21.4738 7.68587L21.146 6.66114L22.0135 6.02483L20.9377 6.01995L20.6006 4.99835ZM21.7794 11.3734L22.1165 10.3517L22.4536 11.3734L23.5294 11.3783L22.662 12.0146L22.9897 13.0393L22.1165 12.4109L21.2433 13.0393L21.571 12.0146L20.7035 11.3783L21.7794 11.3734ZM20.4219 15.3042L20.0848 16.3258L19.009 16.3307L19.8765 16.967L19.5487 17.9917L20.4219 17.3633L21.2952 17.9917L20.9674 16.967L21.8349 16.3307L20.7591 16.3258L20.4219 15.3042ZM16.6698 19.9194L17.0069 18.8978L17.344 19.9194L18.4198 19.9244L17.5524 20.5607L17.8801 21.5853L17.0069 20.957L16.1337 21.5853L16.4614 20.5607L15.5939 19.9244L16.6698 19.9194ZM11.7647 20.7036L11.4276 21.7252L10.3518 21.73L11.2192 22.3664L10.8914 23.3911L11.7647 22.7627L12.6379 23.3911L12.3101 22.3664L13.1776 21.73L12.1018 21.7252L11.7647 20.7036ZM6.18545 19.9194L6.52254 18.8978L6.85962 19.9194L7.93547 19.9244L7.06802 20.5607L7.39575 21.5853L6.52254 20.957L5.64934 21.5853L5.97705 20.5607L5.1096 19.9244L6.18545 19.9194ZM3.10739 15.3042L2.77031 16.3258L1.69446 16.3308L2.562 16.967L2.23418 17.9917L3.10739 17.3633L3.98059 17.9917L3.65278 16.967L4.52033 16.3308L3.44448 16.3258L3.10739 15.3042ZM1.07585 11.3734L1.41294 10.3517L1.75002 11.3734L2.82587 11.3783L1.95842 12.0146L2.28624 13.0393L1.41294 12.4109L0.539732 13.0393L0.867546 12.0146L0 11.3783L1.07585 11.3734ZM2.92893 4.99835L2.59175 6.01995L1.51599 6.02483L2.38344 6.66114L2.05562 7.68587L2.92893 7.05745L3.80214 7.68587L3.47432 6.66114L4.34186 6.02483L3.26601 6.01995L2.92893 4.99835ZM6.36392 2.42631L6.70101 1.40462L7.03809 2.42631L8.11394 2.43119L7.24649 3.06752L7.57431 4.09223L6.70101 3.46381L5.8278 4.09223L6.15562 3.06752L5.28807 2.43119L6.36392 2.42631Z" fill="white"/>
<path d="M5.54299 29.4941V36.3911H4.22299V29.4941H5.54299ZM12.6626 29.4941V36.3911H11.3756L8.10857 31.7161V36.3911H6.86557V29.4941H8.15257L11.4306 34.2791V29.4941H12.6626ZM16.1986 36.3911H13.9876V29.4941H16.1986C16.9026 29.4941 17.46 29.5527 17.8706 29.6701C18.2886 29.7874 18.6223 29.9744 18.8716 30.2311C19.121 30.4877 19.3006 30.8361 19.4106 31.2761C19.528 31.7087 19.5866 32.2624 19.5866 32.9371C19.5866 34.1324 19.319 35.0087 18.7836 35.5661C18.2483 36.1161 17.3866 36.3911 16.1986 36.3911ZM17.8596 31.1881C17.7203 31.0047 17.526 30.8764 17.2766 30.8031C17.0273 30.7224 16.668 30.6821 16.1986 30.6821H15.3076V35.1481H16.1986C16.9906 35.1481 17.526 34.9867 17.8046 34.6641C18.0833 34.3414 18.2226 33.7657 18.2226 32.9371C18.2226 32.4971 18.1933 32.1377 18.1346 31.8591C18.076 31.5804 17.9843 31.3567 17.8596 31.1881Z" fill="white"/>
<path d="M7.52942 7.54395H15.5294V15.5439H7.52942V7.54395Z" fill="white"/>
</svg>
