<svg width="20" height="20" viewBox="0 0 20 20" fill="none" xmlns="http://www.w3.org/2000/svg">
<path fill-rule="evenodd" clip-rule="evenodd" d="M9.40072 17.4585C4.95687 17.4585 1.34296 13.8446 1.34296 9.40072C1.34296 4.95687 4.95687 1.34296 9.40072 1.34296C13.8446 1.34296 17.4585 4.95687 17.4585 9.40072C17.4585 13.8446 13.8446 17.4585 9.40072 17.4585ZM16.4969 15.5475C17.9285 13.8983 18.8014 11.7509 18.8014 9.40072C18.8014 4.21824 14.5832 0 9.40072 0C4.21824 0 0 4.21824 0 9.40072C0 14.5832 4.21824 18.8014 9.40072 18.8014C11.7509 18.8014 13.8983 17.9285 15.5475 16.4969L19.0492 20L20 19.0492L16.4969 15.5475Z" fill="#555F71"/>
</svg>
