<svg width="25" height="26" viewBox="0 0 25 26" fill="none" xmlns="http://www.w3.org/2000/svg">
<path d="M21.5046 20.4966L17.2459 16.4783L18.3983 15.3259L18.4147 15.3424C18.558 15.4852 18.752 15.5655 18.9543 15.5655C19.1566 15.5655 19.3507 15.4852 19.4939 15.3424L19.7939 15.0429C19.9364 14.8994 20.0164 14.7054 20.0164 14.5032C20.0164 14.301 19.9364 14.107 19.7939 13.9636L16.3862 10.5549C16.3476 10.5168 16.3052 10.4828 16.2596 10.4534V4.76825C16.2596 4.46504 16.1391 4.17425 15.9247 3.95985C15.7103 3.74545 15.4195 3.625 15.1164 3.625H4.26821C3.96501 3.625 3.67423 3.74545 3.45984 3.95985C3.24544 4.17425 3.125 4.46504 3.125 4.76825V21.231C3.125 21.5342 3.24544 21.825 3.45984 22.0394C3.67423 22.2538 3.96501 22.3743 4.26821 22.3743H15.115C15.4182 22.3743 15.709 22.2538 15.9234 22.0394C16.1377 21.825 16.2582 21.5342 16.2582 21.231V18.0436L19.9956 22.0052C20.0902 22.1149 20.2062 22.2042 20.3365 22.2677C20.4667 22.3311 20.6086 22.3674 20.7533 22.3743H20.7666C20.9879 22.3824 21.2063 22.3216 21.3915 22.2003C21.5768 22.079 21.7199 21.9031 21.8009 21.697C21.8819 21.4908 21.8969 21.2646 21.8438 21.0496C21.7908 20.8346 21.6722 20.6414 21.5046 20.4966Z" fill="#00E39C"/>
<path d="M14.922 22.375H13.949C13.9136 22.0881 13.773 21.8239 13.5537 21.6319C13.3344 21.4399 13.0515 21.3334 12.7581 21.3323H12.7455C12.7378 21.0937 12.6364 20.8672 12.4626 20.7007C12.2888 20.5343 12.0561 20.4407 11.8137 20.4399H6.93445C6.69201 20.4409 6.45941 20.5345 6.28568 20.7011C6.11195 20.8676 6.01065 21.0941 6.00314 21.3328H5.99051C5.69716 21.3337 5.41424 21.4401 5.19494 21.6321C4.97564 21.824 4.83504 22.0882 4.79959 22.375H3.82664C3.64056 22.375 3.46209 22.3022 3.33051 22.1726C3.19892 22.043 3.125 21.8672 3.125 21.6839V5.09736C3.125 4.91406 3.19892 4.73828 3.33051 4.60867C3.46209 4.47906 3.64056 4.40625 3.82664 4.40625H14.922C15.108 4.40625 15.2865 4.47906 15.4181 4.60867C15.5497 4.73828 15.6236 4.91406 15.6236 5.09736V10.7068C15.4331 10.7165 15.2528 10.7951 15.1175 10.9275L14.8111 11.2298C14.7386 11.3011 14.6811 11.3858 14.6418 11.4791C14.6026 11.5723 14.5824 11.6723 14.5824 11.7732C14.5824 11.8742 14.6026 11.9741 14.6418 12.0674C14.6811 12.1606 14.7386 12.2453 14.8111 12.3166L14.8279 12.3337L11.3108 15.7998L11.2935 15.7832C11.1471 15.6392 10.9487 15.5583 10.7418 15.5583C10.5349 15.5583 10.3365 15.6392 10.1901 15.7832L9.88369 16.0855C9.81118 16.1568 9.75365 16.2415 9.7144 16.3348C9.67515 16.428 9.65495 16.528 9.65495 16.6289C9.65495 16.7299 9.67515 16.8298 9.7144 16.9231C9.75365 17.0163 9.81118 17.101 9.88369 17.1724L13.369 20.6067C13.4414 20.6781 13.5275 20.7348 13.6222 20.7735C13.7169 20.8121 13.8184 20.832 13.9209 20.832C14.0235 20.832 14.125 20.8121 14.2197 20.7735C14.3144 20.7348 14.4004 20.6781 14.4729 20.6067L14.7793 20.3049C14.9253 20.1605 15.0073 19.965 15.0073 19.7612C15.0073 19.5574 14.9253 19.3619 14.7793 19.2176L14.7624 19.201L15.625 18.3514V21.6839C15.625 21.7748 15.6068 21.8647 15.5715 21.9487C15.5361 22.0326 15.4843 22.1089 15.419 22.1731C15.3537 22.2373 15.2762 22.2881 15.1909 22.3228C15.1056 22.3574 15.0142 22.3752 14.922 22.375Z" fill="#00E39C"/>
<path d="M15.2384 12.4204L11.7402 15.9185L14.5145 18.6928L18.0126 15.1946L15.2384 12.4204Z" fill="white"/>
<path d="M14.7465 19.2902C14.8088 19.3422 14.8438 19.4126 14.8438 19.486C14.8438 19.5594 14.8088 19.6298 14.7465 19.6817L14.4215 19.9527C14.3583 20.0031 14.2742 20.0312 14.1868 20.0312C14.0993 20.0312 14.0152 20.0031 13.952 19.9527L10.2534 16.8681C10.2226 16.8424 10.1982 16.812 10.1815 16.7784C10.1648 16.7449 10.1562 16.7089 10.1562 16.6726C10.1562 16.6363 10.1648 16.6003 10.1815 16.5668C10.1982 16.5332 10.2226 16.5028 10.2534 16.4771L10.5785 16.2057C10.6408 16.154 10.7251 16.125 10.813 16.125C10.9008 16.125 10.9851 16.154 11.0474 16.2057L14.7465 19.2902Z" fill="white"/>
<path d="M20.8989 22.1476C20.8485 22.2167 20.7863 22.2727 20.7162 22.3119C20.646 22.3511 20.5696 22.3726 20.4919 22.375C20.4155 22.3682 20.341 22.3434 20.2731 22.3019C20.2051 22.2605 20.1451 22.2033 20.0967 22.134L16.4062 17.5702L16.9754 16.9062L20.8871 21.2118C20.9465 21.2684 20.9955 21.3384 21.031 21.4176C21.0665 21.4969 21.0879 21.5837 21.0938 21.6729C21.0896 21.7631 21.0702 21.8514 21.0368 21.9329C21.0034 22.0144 20.9565 22.0873 20.8989 22.1476Z" fill="white"/>
</svg>
