<svg width="23" height="23" viewBox="0 0 23 23" fill="none" xmlns="http://www.w3.org/2000/svg">
<g clip-path="url(#clip0_145_283)">
<path fill-rule="evenodd" clip-rule="evenodd" d="M11.5 15.8141C13.8817 15.8141 15.8125 13.8834 15.8125 11.5016C15.8125 9.11986 13.8817 7.18909 11.5 7.18909C9.11827 7.18909 7.1875 9.11986 7.1875 11.5016C7.1875 13.8834 9.11827 15.8141 11.5 15.8141ZM11.5 13.8991C10.176 13.8991 9.10256 12.8256 9.10256 11.5016C9.10256 10.1775 10.176 9.10414 11.5 9.10414C12.824 9.10414 13.8975 10.1775 13.8975 11.5016C13.8975 12.8256 12.824 13.8991 11.5 13.8991Z" fill="white"/>
<path fill-rule="evenodd" clip-rule="evenodd" d="M10.5417 0.958333C10.5417 0.42906 10.9707 0 11.5 0C12.0293 0 12.4583 0.42906 12.4583 0.958333V1.96399C16.9859 2.41351 20.5865 6.0141 21.036 10.5417H22.0417C22.571 10.5417 23 10.9707 23 11.5C23 12.0293 22.571 12.4583 22.0417 12.4583H21.036C20.5865 16.9859 16.9859 20.5865 12.4583 21.036V22.0417C12.4583 22.571 12.0293 23 11.5 23C10.9707 23 10.5417 22.571 10.5417 22.0417V21.036C6.0141 20.5865 2.41351 16.9859 1.96399 12.4583H0.958333C0.42906 12.4583 0 12.0293 0 11.5C-1.14242e-07 10.9707 0.42906 10.5417 0.958333 10.5417H1.96399C2.41351 6.0141 6.0141 2.41351 10.5417 1.96399V0.958333ZM11.5 19.1682C7.26496 19.1682 3.83179 15.7351 3.83179 11.5C3.83179 7.26496 7.26496 3.83179 11.5 3.83179C15.7351 3.83179 19.1682 7.26496 19.1682 11.5C19.1682 15.7351 15.7351 19.1682 11.5 19.1682Z" fill="white"/>
</g>
<defs>
<clipPath id="clip0_145_283">
<rect width="23" height="23" fill="white"/>
</clipPath>
</defs>
</svg>
