<svg width="77" height="84" viewBox="0 0 77 84" fill="none" xmlns="http://www.w3.org/2000/svg">
<path d="M40.2853 83.5102C43.2392 81.62 46.2018 79.7387 49.1557 77.8486C50.4928 76.9958 51.8473 76.1519 53.1495 75.2376C56.2432 73.0661 59.1446 70.5958 61.7227 67.8178C66.8264 62.3056 70.7066 55.7737 73.1623 48.6616C75.1636 42.8506 76.02 36.7231 76.02 30.5868V18.8856C76.02 17.312 74.9276 15.9405 73.4507 15.4922C72.3845 15.1669 71.3271 14.8328 70.3046 14.402C70.5842 14.5163 70.8639 14.6394 71.1435 14.7537C69.317 13.9713 67.6042 12.9691 66.0311 11.7559L66.739 12.3097C65.1834 11.0965 63.7851 9.69872 62.5791 8.13387L63.1297 8.84597C61.9237 7.26354 60.9187 5.53166 60.1409 3.69428C60.2545 3.9756 60.3768 4.25693 60.4904 4.53825C60.2283 3.90527 59.9836 3.25472 59.7738 2.60417C59.3019 1.11844 57.9823 0.0195361 56.4005 0.0195361H25.0354C23.5934 0.0195361 22.1427 -0.0244202 20.7008 0.0195361H20.6396C19.049 0.0195361 17.7382 1.11844 17.2662 2.60417C17.0565 3.26351 16.8205 3.90527 16.5496 4.53825C16.6632 4.25693 16.7856 3.9756 16.8992 3.69428C16.1214 5.53166 15.1164 7.25475 13.9104 8.84597L14.4609 8.13387C13.2549 9.69872 11.8567 11.0965 10.3011 12.3097L11.009 11.7559C9.43589 12.9691 7.71426 13.9713 5.89651 14.7537C6.17616 14.6394 6.45582 14.5163 6.73547 14.402C5.70424 14.8328 4.65554 15.1669 3.58935 15.4922C2.11242 15.9405 1.02002 17.312 1.02002 18.8856V29.4879C1.02002 31.3516 1.02002 33.2153 1.15111 35.0791C1.43076 38.8681 2.06873 42.6484 3.12617 46.2968C5.22359 53.5408 8.8591 60.2133 13.6832 65.9716C17.4323 70.4464 21.9505 74.0684 26.8444 77.1892L36.5187 83.3607C36.5974 83.4135 36.6848 83.4662 36.7634 83.519C38.3103 84.5036 40.6874 83.897 41.5438 82.253C42.4527 80.5123 41.9371 78.4992 40.2853 77.4442C38.7123 76.442 37.1392 75.4398 35.5749 74.4376C33.5649 73.1541 31.5636 71.8793 29.5536 70.5958C28.1466 69.6991 26.7745 68.7408 25.4461 67.7211L26.154 68.2749C22.8506 65.6991 19.8793 62.71 17.3187 59.3869L17.8692 60.099C15.265 56.6968 13.0976 52.9693 11.4284 49.0132C11.542 49.2946 11.6644 49.5759 11.778 49.8572C10.0739 45.7869 8.91154 41.5143 8.32601 37.1362C8.36971 37.4439 8.4134 37.7604 8.44836 38.0681C8.07257 35.2198 8.0114 32.3714 8.0114 29.5142V18.9208C7.15495 20.0548 6.29851 21.1801 5.44207 22.3142C8.4571 21.3999 11.376 20.1867 13.9366 18.3317C16.9691 16.1339 19.5559 13.4262 21.4785 10.191C22.536 8.41519 23.3837 6.48111 24.0129 4.51187C22.8856 5.37342 21.7669 6.23496 20.6396 7.0965H52.0046C53.4466 7.0965 54.8973 7.13167 56.3393 7.0965H56.4005C55.2731 6.23496 54.1545 5.37342 53.0271 4.51187C55.2207 11.3954 60.202 17.3823 66.739 20.4768C68.312 21.2241 69.9288 21.8043 71.598 22.3142C70.7415 21.1801 69.8851 20.0548 69.0286 18.9208V31.3868C69.0286 33.6197 68.8801 35.8527 68.5917 38.0681C68.6354 37.7604 68.6791 37.4439 68.714 37.1362C68.1198 41.5055 66.9575 45.7869 65.262 49.8572C65.3756 49.5759 65.498 49.2946 65.6116 49.0132C63.9424 52.9693 61.7751 56.6968 59.1708 60.099L59.7214 59.3869C57.1608 62.71 54.1894 65.6991 50.886 68.2749L51.5939 67.7211C49.6363 69.242 47.5564 70.5518 45.4764 71.8881C43.1693 73.3651 40.8621 74.8332 38.555 76.3101C37.9607 76.6881 37.3577 77.075 36.7634 77.453C36.0031 77.9365 35.4001 78.6662 35.1554 79.5541C34.9282 80.3981 35.0331 81.5146 35.505 82.2618C36.5013 83.8091 38.6336 84.5651 40.2853 83.5102Z" fill="#00E39C"/>
<path d="M20.0298 41.8993L29.0939 50.7523L30.3824 52.0108C31.7328 53.3297 34.0275 53.3297 35.3778 52.0108L42.3766 45.175L53.453 34.3566L56.0036 31.8653C57.3098 30.5895 57.4069 28.2448 56.0036 26.9863C54.5915 25.7191 52.4027 25.6243 51.0082 26.9863L44.0094 33.8221L32.9331 44.6405L30.3824 47.1318H35.3778L26.3137 38.2788L25.0252 37.0202C23.719 35.7444 21.3184 35.6496 20.0298 37.0202C18.7324 38.3995 18.6353 40.5287 20.0298 41.8993Z" fill="#00E39C"/>
<rect y="17.2733" width="42.787" height="7.07625" rx="3.53813" transform="rotate(-22.4233 0 17.2733)" fill="#00E39C"/>
<rect width="43.6015" height="7.07625" rx="3.53813" transform="matrix(-0.924391 -0.381446 -0.381446 0.924391 76.8931 17.22)" fill="#00E39C"/>
</svg>
